<svg xmlns="http://www.w3.org/2000/svg" enable-background="new 0 0 2000 2000" viewBox="50.44 346.48 1899.12 1202.64"><path fill="#d2bbfa" fill-rule="evenodd" d="M703.9,1162.7c-0.3,1.2-0.6,2.5-1.7,3.7c-6.6,7-31.8,12.6-61.9,13.2c-35.3,0.6-64-5.9-64.2-14.6   c0-1.7-1.1-6.7,0.9-8.2l0,0c-0.7,0.9-1,1.9-1,2.9c0.2,8.7,28.9,15.2,64.2,14.6c35.1-0.6,63.5-8.1,63.6-16.7   C704.4,1159,704.4,1160.8,703.9,1162.7z" class="colorbbdbfa svgShape" clip-rule="evenodd"/><path fill="#fff" fill-rule="evenodd" d="M703.8,1157.4c0.2,8.7-28.3,16.2-63.6,16.8c-35.3,0.6-64-5.9-64.2-14.6c-0.2-8.7,28.3-16.2,63.6-16.8   C675,1142.2,703.7,1148.7,703.8,1157.4z" class="colorffffff svgShape" clip-rule="evenodd"/><path fill="#d2bbfa" fill-rule="evenodd" d="M579.8,1159.6c13.7-4.1,34.4-7.4,57.6-8.5c18.6-0.9,35.6-0.4,48.9,1.2c-11.7-2.8-28.3-4.4-46.6-4.1   C612.1,1148.6,588.6,1153.4,579.8,1159.6z" class="colorbbdbfa svgShape" clip-rule="evenodd"/><path fill="#d2bbfa" fill-rule="evenodd" d="M703.9,1162.6c-0.3,1.2-0.6,2.5-1.7,3.7c-6.6,7-31.8,12.6-61.9,13.2c-35.3,0.6-64-5.9-64.2-14.6   c0-1.7-1.1-6.7,0.9-8.2l0,0c-0.7,0.9-1,1.9-1,2.9c0.2,8.7,28.9,15.2,64.2,14.6c35.1-0.6,63.5-8.1,63.6-16.7   C704.4,1159,704.4,1160.7,703.9,1162.6z" class="colorbbdbfa svgShape" clip-rule="evenodd"/><path fill="#fff" fill-rule="evenodd" d="M703.8,1157.3c0.2,8.7-28.3,16.2-63.6,16.8c-35.3,0.6-64-5.9-64.2-14.6c-0.2-8.7,28.3-16.2,63.6-16.8   C675,1142.1,703.7,1148.7,703.8,1157.3z" class="colorffffff svgShape" clip-rule="evenodd"/><path fill="#d2bbfa" fill-rule="evenodd" d="M579.8,1159.5c13.7-4.1,34.4-7.4,57.6-8.5c18.6-0.9,35.6-0.4,48.9,1.2c-11.7-2.8-28.3-4.4-46.6-4.1   C612.1,1148.6,588.6,1153.3,579.8,1159.5z" class="colorbbdbfa svgShape" clip-rule="evenodd"/><g class="color000000 svgShape"><path fill="#d7c3fa" fill-rule="evenodd" d="M403.3,483.3l-13.6,7.9c-4.6,2.7-6.2,8.6-3.5,13.2l3,5.2c3.5,6.1,2,8.9,0.9,9.8c-3,2.7-5.8,5.7-8.7,8.6   c-0.8,0.9-3.5,3.8-10.4-0.2l-4.8-2.8c-4.6-2.7-10.5-1.1-13.2,3.5l-7.9,13.6c-2.7,4.6-1.1,10.5,3.5,13.2l4.7,2.7   c6.5,3.8,6.3,5.7,5.5,8.5c-1.1,3.8-2.3,7.6-3.2,11.5c-0.7,3.5-0.4,6-9.2,6h-5.4c-5.3,0-9.7,4.3-9.7,9.7v15.8c0,5.3,4.3,9.7,9.7,9.7   h5.4c8.8,0,8.5,2.5,9.2,6c0.8,3.9,2,7.7,3.2,11.5c0.8,2.8,1,4.7-5.5,8.5l-4.7,2.7c-4.6,2.7-6.2,8.6-3.5,13.2l7.9,13.6   c2.7,4.6,8.6,6.2,13.2,3.5l4.8-2.8c6.9-4,9.6-1.1,10.4-0.2c2.8,2.9,5.6,5.9,8.7,8.6c1.1,1,2.6,3.7-0.9,9.8l-3,5.2   c-2.7,4.6-1.1,10.5,3.5,13.2l13.6,7.9c4.6,2.7,10.5,1.1,13.2-3.5l3-5.2c3.6-6.2,7.1-5.9,8.6-5.5c4.3,1.4,8.4,2.3,12.8,3.4   c1.6,0.4,4.4,1.6,4.4,9v5.5c0,5.3,4.3,9.7,9.7,9.7h15.8c5.3,0,9.7-4.3,9.7-9.7v-5.5c0-7.4,2.8-8.6,4.4-9c4.5-1.2,8.5-2.1,12.8-3.4   c1.5-0.5,5-0.7,8.6,5.5l3,5.2c2.7,4.6,8.6,6.2,13.2,3.5l13.6-7.9c4.6-2.7,6.2-8.6,3.5-13.2l-3-5.2c-3.5-6.1-2-8.9-0.9-9.8   c3-2.7,5.8-5.7,8.7-8.6c0.8-0.9,3.5-3.8,10.4,0.2l4.8,2.8c4.6,2.7,10.5,1.1,13.2-3.5l7.9-13.6c2.7-4.6,1.1-10.5-3.5-13.2l-4.7-2.7   c-6.5-3.8-6.3-5.7-5.5-8.5c1.1-3.8,2.3-7.6,3.2-11.5c0.7-3.5,0.4-6,9.2-6h5.4c5.3,0,9.7-4.3,9.7-9.7v-15.8c0-5.3-4.3-9.7-9.7-9.7   h-5.4c-8.8,0-8.5-2.5-9.2-6c-0.8-3.9-2-7.7-3.2-11.5c-0.8-2.8-1-4.7,5.5-8.5l4.7-2.7c4.6-2.7,6.2-8.6,3.5-13.2l-7.9-13.6   c-2.7-4.6-8.6-6.2-13.2-3.5l-4.8,2.8c-6.9,4-9.6,1.1-10.4,0.2c-2.8-2.9-5.6-5.9-8.7-8.6c-1.1-1-2.6-3.7,0.9-9.8l3-5.2   c2.7-4.6,1.1-10.5-3.5-13.2l-13.6-7.9c-4.6-2.7-10.5-1.1-13.2,3.5l-3,5.2c-3.6,6.2-7.1,5.9-8.6,5.5c-4.3-1.4-8.4-2.3-12.8-3.4   c-1.6-0.4-4.4-1.6-4.4-9v-5.5c0-5.3-4.3-9.7-9.7-9.7h-15.8c-5.3,0-9.7,4.3-9.7,9.7v5.5c0,7.4-2.8,8.6-4.4,9   c-4.5,1.2-8.5,2.1-12.8,3.4c-1.5,0.5-5,0.7-8.6-5.5l-3-5.2C413.8,482.2,407.9,480.6,403.3,483.3L403.3,483.3z M463,580.8   c11.5,0,20.8,9.3,20.8,20.8c0,11.5-9.3,20.8-20.8,20.8c-11.5,0-20.8-9.3-20.8-20.8C442.2,590.1,451.5,580.8,463,580.8L463,580.8z    M397.7,601.6c0-2.5,2-4.5,4.5-4.5c2.5,0,4.5,2,4.5,4.5c0,15.6,6.3,29.6,16.5,39.8c10.2,10.2,24.3,16.5,39.8,16.5   c2.5,0,4.5,2,4.5,4.5s-2,4.5-4.5,4.5c-18,0-34.3-7.3-46.1-19.1C405,635.9,397.7,619.6,397.7,601.6L397.7,601.6z M527.3,591.1   c0.4,2.4-1.3,4.7-3.7,5.1c-2.4,0.4-4.7-1.3-5.1-3.7c-1.9-11.8-7.5-22.4-15.6-30.5c-8.1-8.1-18.6-13.8-30.4-15.9   c-2.4-0.4-4-2.7-3.6-5.1c0.4-2.4,2.7-4,5.1-3.6c13.6,2.4,25.8,9,35.2,18.4C518.6,565.1,525.1,577.4,527.3,591.1L527.3,591.1z    M463,524.3c42.7,0,77.3,34.6,77.3,77.3s-34.6,77.3-77.3,77.3c-42.7,0-77.3-34.6-77.3-77.3S420.3,524.3,463,524.3z" class="colorc3dffa svgShape" clip-rule="evenodd"/><path fill="#efeaf8" fill-rule="evenodd" d="M1634.3,523.4c-14.8,0-26.9-12-26.9-26.9c0-14.8,12-26.9,26.9-26.9s26.9,12,26.9,26.9   C1661.2,511.3,1649.2,523.4,1634.3,523.4L1634.3,523.4z M492.9,1167.9H349.2c-77.3,0-140.5,63.2-140.5,140.5l0,0   c0,77.3,63.2,140.5,140.5,140.5h1214.5c125.2,0,227.6-102.4,227.6-227.6v0c0-125.2-102.4-227.6-227.6-227.6l0,0   c-52.9,0-96.2-43.3-96.2-96.2l0,0c0-52.9,43.3-96.2,96.2-96.2h115.8c55,0,100-45,100-100l0,0c0-55-45-100-100-100h-146.5   c-21.4,0-38.9-17.5-38.9-39l0,0c0-21.4,17.5-38.9,38.9-38.9h25.8c14.8,0,26.9-12.1,26.9-26.9l0,0c0-14.8-12.1-26.9-26.9-26.9h-96.8   c0,0-37,0-72.6,0c-35.7,0-39.6,42.1-129.8,42.1c-139.3,0-69.7,0-209,0c-19.3,0-35.1,15.8-35.1,35.1l0,0c0,19.3,15.8,35.1,35.1,35.1   h33.7c28,0,50.8,22.9,50.8,50.8v0c0,27.9-22.9,50.8-50.8,50.8H983.1c-136.9,0-156.2,35.8-180.2,106.9   c-24,71.2-148.5,76.9-148.5,76.9H484.1c-42.1,0-76.6,34.5-76.6,76.6l0,0c0,42.1,34.5,76.6,76.6,76.6h8.8   c40.5,0,73.7,33.2,73.7,73.7l0,0C566.5,1134.7,533.4,1167.9,492.9,1167.9L492.9,1167.9z" class="coloreaeff8 svgShape" clip-rule="evenodd"/><path fill="#fefefe" fill-rule="evenodd" d="M1477.8,715.1v511.3c0,22.7-18.5,41.1-41.2,41.1h-900c-22.7,0-41.1-18.5-41.1-41.1V715.1    c0-22.7,18.5-41.1,41.1-41.1h900c9.7,0,19.1,3.4,26.5,9.7C1472.5,691.5,1477.8,703,1477.8,715.1z" class="colorfefefe svgShape" clip-rule="evenodd"/><polygon fill="#c4a4fc" fill-rule="evenodd" points="1134.4 1421.9 839 1421.9 854.4 1354.1 880.8 1237.8 883.8 1224.2 1089.6 1224.2 1092.7 1237.8 1119 1354.1" class="colora4d0fc svgShape" clip-rule="evenodd"/><polygon fill="#ad8be9" fill-rule="evenodd" points="1119 1354.1 854.4 1354.1 866.9 1299 1106.6 1299" class="color8bbae9 svgShape" clip-rule="evenodd"/><path fill="#c4a4fc" fill-rule="evenodd" d="M495.6,715.1c0-22.7,18.5-41.1,41.1-41.1h899.9c9.7,0,19.1,3.4,26.5,9.7c9.3,7.8,14.6,19.3,14.6,31.5l0,511.3    c0,14.2-7.3,26.8-18.3,34.2c-6.5,4.4-14.4,6.9-22.8,6.9H536.7c-1.9,0-3.8-0.1-5.7-0.4c-20-2.8-35.4-20-35.4-40.7V715.1    L495.6,715.1z M1483.4,659.7c-10.4-8.8-23.1-14.4-36.5-16.3c-3.4-0.5-6.8-0.7-10.2-0.7H536.7c-40,0-72.5,32.5-72.5,72.5l0,511.3    c0,21,9,40,23.3,53.2c8.7,8,19.3,14,31.1,17c5.8,1.5,11.8,2.3,18,2.3h899.9c0.8,0,1.5,0,2.3,0c2.2-0.1,4.4-0.2,6.6-0.5    c3.6-0.5,7.2-1.2,10.7-2.1c2.1-0.6,4.1-1.3,6.1-2c2.7-1,5.3-2.2,7.8-3.5c1.4-0.7,2.7-1.5,4-2.2v0c3.9-2.4,7.6-5.1,11-8.2    c9.5-8.5,16.7-19.5,20.7-31.9c0.8-2.4,1.4-4.9,2-7.4c0.4-2.1,0.8-4.2,1-6.4c0.3-2.7,0.5-5.5,0.5-8.2l0-511.3    C1509.2,693.7,1499.8,673.5,1483.4,659.7z" class="colora4d0fc svgShape" clip-rule="evenodd"/><path fill="#c4a4fc" fill-rule="evenodd" d="M1493.5,1196.9v29.5c0,31.4-25.5,56.8-56.8,56.8H536.7c-31.4,0-56.8-25.5-56.8-56.8l0-29.5H1493.5z" class="colora4d0fc svgShape" clip-rule="evenodd"/><path fill="#ad8be9" fill-rule="evenodd" d="M1181.8,1436.4H791.6c-4.5,0-8.1-3.6-8.1-8.1c0-4.5,3.6-8.1,8.1-8.1h390.2c4.5,0,8.1,3.6,8.1,8.1    c0,1.4-0.3,2.7-0.9,3.8C1187.7,1434.7,1184.9,1436.4,1181.8,1436.4z" class="color8bbae9 svgShape" clip-rule="evenodd"/><rect width="772.1" height="744.1" x="596.2" y="446.7" fill="#f4effc" fill-rule="evenodd" class="coloreff9fc svgShape" clip-rule="evenodd"/><rect width="772.1" height="80" x="596.2" y="446.7" fill="#e0d2f7" fill-rule="evenodd" class="colord2e5f7 svgShape" clip-rule="evenodd"/><rect width="289.6" height="30" x="617.5" y="468.7" fill="#fff" fill-rule="evenodd" class="colorffffff svgShape" clip-rule="evenodd"/><path fill="#fff" fill-rule="evenodd" d="M1324.8,466.7c10.2,0,18.5,8.3,18.5,18.5c0,10.2-8.3,18.5-18.5,18.5s-18.5-8.3-18.5-18.5    C1306.3,474.9,1314.6,466.7,1324.8,466.7z" class="colorffffff svgShape" clip-rule="evenodd"/><rect width="291.5" height="62.9" x="677.8" y="587.8" fill="#e0d2f7" fill-rule="evenodd" class="colord2e5f7 svgShape" clip-rule="evenodd"/><rect width="291.5" height="62.9" x="677.8" y="673.2" fill="#e0d2f7" fill-rule="evenodd" class="colord2e5f7 svgShape" clip-rule="evenodd"/><path fill="#fefefe" fill-rule="evenodd" d="M688.2,760.9h199.7c1.6,0,2.9,1.3,2.9,2.9v5.9c0,1.6-1.3,2.9-2.9,2.9H688.2c-1.6,0-2.9-1.3-2.9-2.9v-5.9    C685.2,762.3,686.6,760.9,688.2,760.9z" class="colorfefefe svgShape" clip-rule="evenodd"/><path fill="#fefefe" fill-rule="evenodd" d="M688.2,790.8h253.9c1.6,0,2.9,1.3,2.9,2.9v5.9c0,1.6-1.3,2.9-2.9,2.9H688.2c-1.6,0-2.9-1.3-2.9-2.9v-5.9    C685.2,792.1,686.6,790.8,688.2,790.8z" class="colorfefefe svgShape" clip-rule="evenodd"/><path fill="#fefefe" fill-rule="evenodd" d="M688.2,820.7h253.9c1.6,0,2.9,1.3,2.9,2.9v5.9c0,1.6-1.3,2.9-2.9,2.9H688.2c-1.6,0-2.9-1.3-2.9-2.9v-5.9    C685.2,822,686.6,820.7,688.2,820.7z" class="colorfefefe svgShape" clip-rule="evenodd"/><path fill="#fefefe" fill-rule="evenodd" d="M688.2,850.5h151.6c1.6,0,2.9,1.3,2.9,2.9v5.9c0,1.6-1.3,2.9-2.9,2.9H688.2c-1.6,0-2.9-1.3-2.9-2.9v-5.9    C685.2,851.9,686.6,850.5,688.2,850.5z" class="colorfefefe svgShape" clip-rule="evenodd"/><path fill="#fefefe" fill-rule="evenodd" d="M688.2,880.4h253.9c1.6,0,2.9,1.3,2.9,2.9v5.9c0,1.6-1.3,2.9-2.9,2.9H688.2c-1.6,0-2.9-1.3-2.9-2.9v-5.9    C685.2,881.7,686.6,880.4,688.2,880.4z" class="colorfefefe svgShape" clip-rule="evenodd"/><path fill="#fefefe" fill-rule="evenodd" d="M1038.3,593.4H1238c1.6,0,2.9,1.3,2.9,2.9v5.9c0,1.6-1.3,2.9-2.9,2.9h-199.7c-1.6,0-2.9-1.3-2.9-2.9v-5.9    C1035.4,594.7,1036.7,593.4,1038.3,593.4z" class="colorfefefe svgShape" clip-rule="evenodd"/><path fill="#fefefe" fill-rule="evenodd" d="M1038.3,623.3h253.9c1.6,0,2.9,1.3,2.9,2.9v5.9c0,1.6-1.3,2.9-2.9,2.9h-253.9c-1.6,0-2.9-1.3-2.9-2.9v-5.9    C1035.4,624.6,1036.7,623.3,1038.3,623.3z" class="colorfefefe svgShape" clip-rule="evenodd"/><path fill="#fefefe" fill-rule="evenodd" d="M1038.3,653.2h253.9c1.6,0,2.9,1.3,2.9,2.9v5.9c0,1.6-1.3,2.9-2.9,2.9h-253.9c-1.6,0-2.9-1.3-2.9-2.9v-5.9    C1035.4,654.5,1036.7,653.2,1038.3,653.2z" class="colorfefefe svgShape" clip-rule="evenodd"/><path fill="#fefefe" fill-rule="evenodd" d="M1038.3,683H1190c1.6,0,2.9,1.3,2.9,2.9v5.9c0,1.6-1.3,2.9-2.9,2.9h-151.6c-1.6,0-2.9-1.3-2.9-2.9V686    C1035.4,684.4,1036.7,683,1038.3,683z" class="colorfefefe svgShape" clip-rule="evenodd"/><rect width="291.5" height="62.9" x="1031.5" y="755.7" fill="#e0d2f7" fill-rule="evenodd" class="colord2e5f7 svgShape" clip-rule="evenodd"/><rect width="291.5" height="172.4" x="677.8" y="942.9" fill="#e0d2f7" fill-rule="evenodd" class="colord2e5f7 svgShape" clip-rule="evenodd"/><path fill="#fefefe" fill-rule="evenodd" d="M1032.3,879.5H1232c1.6,0,2.9,1.3,2.9,2.9v5.9c0,1.6-1.3,2.9-2.9,2.9h-199.7c-1.6,0-2.9-1.3-2.9-2.9v-5.9    C1029.4,880.8,1030.7,879.5,1032.3,879.5z" class="colorfefefe svgShape" clip-rule="evenodd"/><path fill="#fefefe" fill-rule="evenodd" d="M1032.3,909.3h253.9c1.6,0,2.9,1.3,2.9,2.9v5.9c0,1.6-1.3,2.9-2.9,2.9h-253.9c-1.6,0-2.9-1.3-2.9-2.9v-5.9    C1029.4,910.6,1030.7,909.3,1032.3,909.3z" class="colorfefefe svgShape" clip-rule="evenodd"/><path fill="#fefefe" fill-rule="evenodd" d="M1032.3,939.2h253.9c1.6,0,2.9,1.3,2.9,2.9v5.9c0,1.6-1.3,2.9-2.9,2.9h-253.9c-1.6,0-2.9-1.3-2.9-2.9v-5.9    C1029.4,940.5,1030.7,939.2,1032.3,939.2z" class="colorfefefe svgShape" clip-rule="evenodd"/><rect width="291.5" height="62.9" x="1015.5" y="1052.3" fill="#e0d2f7" fill-rule="evenodd" class="colord2e5f7 svgShape" clip-rule="evenodd"/><path fill="#c4a4fc" fill-rule="evenodd" d="M827.2,954c19.5,20.4,30.1,39.1,32,56.2c16.9-13.4,10-49.4-20.6-108.1l0.6-0.3    c56.4,34.5,91.8,43.8,106.3,27.8c-16.9-3.1-34.8-15-53.8-35.8C821.8,813.4,751.7,878.6,827.2,954z" class="colora4d0fc svgShape" clip-rule="evenodd"/><path fill="#9061e0" fill-rule="evenodd" d="M845.3,859.8c-34.7-11.5-59,12.4-48,48.5c4.1-9.4,12.2-20.5,23.1-30.7C828.6,869.9,837.3,863.8,845.3,859.8z" class="color61a0e0 svgShape" clip-rule="evenodd"/><path fill="#9061e0" fill-rule="evenodd" d="M842.4,860.1c-9.4-2.7-17.9-2.7-25-0.5c-4.8,1.5-9,3.9-12.3,7.2c-3.4,3.3-5.9,7.4-7.5,12.2    c-2.4,7.3-2.6,16.2-0.1,26.2c2-4.1,4.8-8.5,8.1-12.9c3.9-5.2,8.6-10.4,14-15.5c4.1-3.8,8.3-7.3,12.5-10.2    C835.6,864.1,839.1,861.9,842.4,860.1L842.4,860.1z M816.8,857.5c8.2-2.5,18-2.3,28.8,1.3l0.1,2c-4,2-8.2,4.5-12.4,7.5    c-4.1,2.9-8.2,6.3-12.3,10.1c-5.3,4.9-9.9,10.1-13.7,15.2c-4,5.3-7,10.4-9.1,15.1l-2-0.1c-3.5-11.5-3.5-21.9-0.7-30.3    c1.7-5.1,4.5-9.6,8.1-13.1C807.2,861.7,811.7,859.1,816.8,857.5z" class="color61a0e0 svgShape" clip-rule="evenodd"/><path fill="#9061e0" fill-rule="evenodd" d="M801.2,869.2c0.5,0.5,0.5,1.3,0,1.7c-0.5,0.5-1.3,0.5-1.7,0c-1.7-1.7-3.6-3.3-5.5-4.9     c-6.1-4.8-13-8.5-19.1-10.2c-5.9-1.6-11-1.4-13.8,1.5c-0.2,0.2-0.4,0.4-0.6,0.6l0,0c-2.3,3-3.3,6-3.4,8.7c0,1.8,0.4,3.5,1.1,5     c0.7,1.5,1.8,2.7,3,3.7c1.5,1.2,3.3,1.9,5.1,1.9c2.1,0,4-0.4,5.5-1.2c0.9-0.5,1.6-1.1,2-1.8c0.4-0.7,0.5-1.4,0.2-2.3     c-0.3-1-1-2.1-2.2-3.3c-0.5-0.5-0.5-1.2,0-1.7c0.5-0.5,1.2-0.5,1.7,0c1.6,1.5,2.5,3,2.9,4.4c0.4,1.5,0.2,2.9-0.4,4.1     c-0.6,1.2-1.7,2.1-3,2.8c-1.8,1-4.2,1.6-6.7,1.5c-2.3,0-4.7-0.9-6.6-2.4c-1.5-1.2-2.8-2.7-3.7-4.5c-0.9-1.8-1.4-3.9-1.4-6.1     c0-3.2,1.2-6.7,3.8-10.1l0.1-0.1c0.2-0.3,0.5-0.6,0.8-0.8c3.6-3.5,9.5-3.9,16.2-2.1c6.4,1.8,13.6,5.6,20,10.6     C797.4,865.7,799.4,867.4,801.2,869.2z" class="color61a0e0 svgShape" clip-rule="evenodd"/><path fill="#9061e0" fill-rule="evenodd" d="M807.9,863c0.4,0.5,1.2,0.6,1.7,0.1c0.5-0.4,0.6-1.2,0.1-1.7c-1.6-1.8-3.1-3.8-4.5-5.8     c-4.4-6.4-7.6-13.5-8.8-19.8c-1.2-6-0.6-11,2.4-13.7c0.2-0.2,0.4-0.3,0.7-0.5l0,0c3.2-2.1,6.2-2.9,8.9-2.7     c1.8,0.1,3.5,0.6,4.9,1.5c1.4,0.8,2.6,1.9,3.4,3.2c1.1,1.6,1.6,3.4,1.5,5.2c-0.1,2.1-0.7,4-1.6,5.4c-0.6,0.9-1.2,1.5-2,1.9     c-0.7,0.3-1.5,0.4-2.3,0.1c-1-0.3-2-1.1-3.1-2.4c-0.4-0.5-1.2-0.6-1.7-0.1c-0.5,0.4-0.6,1.2-0.1,1.7c1.4,1.7,2.8,2.7,4.2,3.1     c1.5,0.5,2.9,0.4,4.1-0.1c1.2-0.5,2.2-1.5,3-2.8c1.1-1.8,1.8-4.1,2-6.6c0.1-2.3-0.6-4.7-1.9-6.7c-1.1-1.6-2.5-3-4.2-4     c-1.7-1-3.8-1.7-6-1.8c-3.2-0.2-6.7,0.7-10.4,3.1l-0.1,0.1c-0.3,0.2-0.6,0.4-0.9,0.7c-3.8,3.3-4.6,9.2-3.2,16     c1.3,6.5,4.7,14,9.2,20.7C804.6,859,806.2,861,807.9,863z" class="color61a0e0 svgShape" clip-rule="evenodd"/><path fill="#d7c3fa" fill-rule="evenodd" d="M866.9,973.8c8.5,5.3,14,7.6,16.5,6.7c-11.8-31.3-17.7-47-17.7-47c32,13.8,46.9,19.9,44.6,18.3    c-2-6.6-4.4-12.8-7.1-18.7c-17-5.3-38.3-15.7-63.9-31.4l-0.6,0.3C854.2,931.8,863.6,955.7,866.9,973.8z" class="colorc3dffa svgShape" clip-rule="evenodd"/><path fill="#7d4fcc" fill-rule="evenodd" d="M796,911.2c1.2-0.1,2.2,0.8,2.3,1.9c0.1,1.2-0.8,2.2-1.9,2.3c-3.4,0.3-5.9,1.4-7.5,3.5    c-1.7,2.1-2.5,5.2-2.4,9.4c0,1.2-0.9,2.1-2.1,2.2c-1.2,0-2.1-0.9-2.2-2.1c-0.1-5.1,1.1-9.2,3.3-12.1    C788,913.2,791.4,911.6,796,911.2z" class="color4f8ecc svgShape" clip-rule="evenodd"/><path fill="#7d4fcc" fill-rule="evenodd" d="M820.2,947.2c1.2-0.1,2.2,0.8,2.3,1.9c0.1,1.2-0.8,2.2-1.9,2.3c-3.4,0.3-5.9,1.4-7.5,3.5    c-1.7,2.1-2.5,5.2-2.4,9.4c0,1.2-0.9,2.1-2.1,2.2c-1.2,0-2.1-0.9-2.2-2.1c-0.1-5.1,1.1-9.2,3.3-12.1    C812.2,949.3,815.6,947.6,820.2,947.2z" class="color4f8ecc svgShape" clip-rule="evenodd"/><path fill="#7d4fcc" fill-rule="evenodd" d="M850.8,860c-0.2,1.2,0.6,2.2,1.8,2.4c1.2,0.2,2.2-0.6,2.4-1.8c0.5-3.3,1.8-5.7,4-7.2    c2.2-1.5,5.4-2.1,9.5-1.8c1.2,0.1,2.2-0.8,2.3-1.9c0.1-1.2-0.8-2.2-1.9-2.3c-5.1-0.4-9.2,0.4-12.3,2.5    C853.4,852.1,851.5,855.5,850.8,860z" class="color4f8ecc svgShape" clip-rule="evenodd"/><path fill="#7d4fcc" fill-rule="evenodd" d="M885.1,886.7c-0.2,1.2,0.6,2.2,1.8,2.4c1.2,0.2,2.2-0.6,2.4-1.8c0.5-3.3,1.8-5.7,4-7.2    c2.2-1.5,5.4-2.1,9.5-1.8c1.2,0.1,2.2-0.8,2.3-1.9c0.1-1.2-0.8-2.2-1.9-2.3c-5.1-0.4-9.2,0.4-12.3,2.5    C887.8,878.8,885.8,882.1,885.1,886.7z" class="color4f8ecc svgShape" clip-rule="evenodd"/><path fill="#9061e0" fill-rule="evenodd" d="M896,946.5c-7.3-3.1-17.4-7.4-30.3-12.9l12.2,32.3c10.2,0.8,16.1-0.5,17.6-3.8    C896.5,955.7,896.7,950.5,896,946.5z" class="color61a0e0 svgShape" clip-rule="evenodd"/><path fill="#c4a4fc" fill-rule="evenodd" d="M828,953.2c9.8,10.3,17.4,20.1,22.8,29.6c5,8.8,8.1,17.2,9.3,25.2c6.9-6.7,8.8-18.2,5.7-34.7    c-3.4-17.9-12.7-41.5-28-70.8l-0.5-1l1.1-0.5l0.6-0.3l0.5-0.2l0.5,0.3c28.1,17.2,51,28.1,68.6,32.7c16.2,4.2,27.8,3.1,35-3.3    c-8-1.8-16.1-5.4-24.5-11c-9-6-18.3-14.3-27.9-24.7l0,0c-24.5-28.2-49-38.3-67-36.2c-7.3,0.8-13.5,3.6-18.2,8    c-4.7,4.4-8,10.4-9.3,17.6C793.1,901.7,801.5,926.8,828,953.2L828,953.2L828,953.2z M848.8,983.9c-5.3-9.3-12.8-19-22.4-29.1    c-27-27-35.6-52.8-32.2-71.2c1.4-7.7,4.9-14.1,9.9-18.8c5.1-4.7,11.7-7.7,19.4-8.6c18.6-2.1,43.8,8.2,68.9,37    c9.4,10.3,18.6,18.5,27.5,24.4c8.9,5.9,17.4,9.6,25.7,11.1l1.9,0.3l-1.3,1.4c-7.5,8.3-20.4,10-38.5,5.3    c-17.3-4.5-39.6-15.1-66.9-31.6c14.6,28.3,23.5,51.2,26.9,68.9c3.5,18.5,0.9,31.2-7.9,38.1l-1.5,1.2l-0.2-1.9    C857.2,1001.9,854.1,993.1,848.8,983.9z" class="colora4d0fc svgShape" clip-rule="evenodd"/><path fill="#e9dffa" fill-rule="evenodd" d="M835.1,912.7c-0.2-0.3,0-0.7,0.3-0.8c0.3-0.2,0.7,0,0.8,0.3c7.6,14.6,13.1,26.8,16.6,36.7    c3.5,9.9,5,17.5,4.4,22.7c0,0.3-0.3,0.6-0.7,0.5c-0.3,0-0.6-0.3-0.5-0.7c0.6-5-0.9-12.4-4.3-22.1    C848.2,939.5,842.7,927.3,835.1,912.7z" class="colordfedfa svgShape" clip-rule="evenodd"/><path fill="#e9dffa" fill-rule="evenodd" d="M870,914.7c-0.3-0.2-0.4-0.5-0.3-0.8c0.2-0.3,0.5-0.4,0.8-0.3c7.8,4,14.5,7,20.1,8.9    c5.6,1.9,10.1,2.8,13.6,2.6c0.3,0,0.6,0.2,0.6,0.6c0,0.3-0.2,0.6-0.6,0.6c-3.6,0.2-8.3-0.7-14-2.7    C884.6,921.8,877.8,918.8,870,914.7z" class="colordfedfa svgShape" clip-rule="evenodd"/><g class="color000000 svgShape"><path fill="#ad7dff" fill-rule="evenodd" d="M504.9,1425.8c0.4-3.4-0.9-8.1-0.4-13.7c3.8-43.5,12-141.9,12-141.9s9.3-77.9,10-127.2    c-10-0.9-19.7-2.6-29.4-5c-21-5.4-35.1-13.9-55.1-23.6c-10.9,40.2-31.1,114.1-31.1,114.1s0,15.7-20.9,15.7    c-18.4,0-94.7,63.9-109.8,73.4c2,4.6,6.9,9.2,9.1,13.7c24.3-19.8,149.2-65.5,149.2-65.5l33.9-85.9c0,0,10.2,105.4,2,113.6    c-8.2,8.2,14.6,126.3,14.6,132.3C489,1426.5,498.6,1425.6,504.9,1425.8z" class="colorffb27d svgShape" clip-rule="evenodd"/><path fill="#673bb3" fill-rule="evenodd" d="M469.9,1157.5c0,0,7.3,116.5,3.7,123.3c-3.7,6.8-6.4,18.2-3.7,47c2.7,28.8,11,79.1,11,79.1l27,0.9l11-137.5    l9.4-127.5l0.2-2.7l-36.5-27.4L469.9,1157.5z" class="color3b5bb3 svgShape" clip-rule="evenodd"/><path fill="#7445c6" fill-rule="evenodd" d="M296.4,1299.1l11.9,21.5c0,0,107.6-35.4,130.2-52.1c8.7-6.4,44.8-93.6,44.8-93.6l28.5-33.8l0.3-18.8    l-61.1-26.9c0,0-22.2,25-26.6,35.1c-10.9,25.2-18.3,108.2-18.3,108.2s0.9-3.2-19.6,2.3C365.8,1246.6,296.4,1299.1,296.4,1299.1z" class="color4567c6 svgShape" clip-rule="evenodd"/><path fill="#3e1d77" fill-rule="evenodd" d="M300.6,1324.7c0,0-7.2-4.7-8-7.3c-0.8-2.7,1.2-9.4-1.8-10.9c-3-1.6-22,4.7-24.8,6.8c-3.5,2.7-4.9,6.8-4,9.5    c0.9,2.7,26.2,48.5,31.5,54.3c5.3,5.8,12-7,8-15C297.6,1354.1,302.2,1337.3,300.6,1324.7z" class="color284191 svgShape" clip-rule="evenodd"/><path fill="#3e1d77" fill-rule="evenodd" d="M506.1,1413.2c0,0-7.6,3.9-10.3,3.4c-2.7-0.6-7.6-5.7-10.4-3.9c-2.8,1.8-6.8,21.5-6.3,25    c0.6,4.4,3.5,7.6,6.3,8.2c2.8,0.6,55.1,1.3,62.8-0.5c7.7-1.8-0.2-13.9-9.1-14.4C530.2,1430.4,517.8,1418.1,506.1,1413.2z" class="color284191 svgShape" clip-rule="evenodd"/><path fill="#9061e0" fill-rule="evenodd" d="M658.7,1042.1c-37.3,37.4-57.1,59.6-90.1,70.7c-7.2-6.4-11.9-15.4-14.3-27.2c-8.2,18.4-16.8,36.6-25.8,54.5    c-18.7,6.1-46.2,4.4-82.4-5.2l-4.3-16.8c-2.6-1.9-10.7-1.7-16.1,1.7c-17.2-32.4-25.1-62.4-25.8-88.8    c24.1-45.1,47.3-78.8,69.3-101.2c8.4-5.3,23.4-7.5,45-6.4c24.3,26.8,39,34.1,44.2,21.8c7.5,7,17,17.6,28.3,31.7    c8,14.9,6.8,44.9-3.4,90c21.7-14.2,43.8-27.6,68.3-37.3C654.4,1032.1,657.2,1036.3,658.7,1042.1L658.7,1042.1z M441.4,1102.7    c22.1-24.9,33.6-62.7,34.5-113.6c-14.3,18.8-28.7,37.1-43.5,54.9C437.4,1049.8,440.3,1069.4,441.4,1102.7z" class="color61a0e0 svgShape" clip-rule="evenodd"/><path fill="#7d4fcc" fill-rule="evenodd" d="M554.2,1085.6c11.8-28.1,20-51.8,24.6-71.1c-8.3,41.7-11.1,70.6-8.3,86.7c5.4,2.3,13,1.6,23.9-0.8    c-8.3,5.2-16.7,9.5-25.8,12.4C561.4,1106.5,556.6,1097.4,554.2,1085.6z" class="color4f8ecc svgShape" clip-rule="evenodd"/><path fill="#7d4fcc" fill-rule="evenodd" d="M441.7,1118.1c0.2-4.8,0.1-9.9-0.3-15.4c22.1-24.9,33.6-62.7,34.5-113.6c9.3,50.6-1.7,94.8-33.2,132.8    L441.7,1118.1z" class="color4f8ecc svgShape" clip-rule="evenodd"/><path fill="#7d4fcc" fill-rule="evenodd" d="M552.2,1036.7c-19.5-9.1-43.6-17.4-73.3-22.9c-0.4-8.1-1.4-16.3-3-24.7c46.6,11.4,78.5,23.9,95.8,37.4    L552.2,1036.7L552.2,1036.7z M472,1069.4c3.7,0.9,7.5,2,11.5,3.2l-1.3,0.7l-14.5,7.6C469.3,1077.1,470.7,1073.3,472,1069.4    L472,1069.4z M500.9,1108.5l24.4-12.8c7.7,3.5,14.1,7.2,19.2,11c-2.9,6.1-5.8,12.2-8.7,18.3    C526.7,1119.3,515.1,1113.8,500.9,1108.5L500.9,1108.5z M513.3,1057l22.7-11.9c-17.3-6.8-36.3-11.9-57.1-15.5    c-0.3,8.4-1.3,16.5-3,24.5c10.2,2.6,19.4,5.2,27.9,7.8L513.3,1057L513.3,1057z M572.2,969.8c-17.8-11.9-39.9-21-66.4-27.3    c5.3-3.8,11.2-7,17.7-9.4c17.6,17.4,28.9,22.1,34,14C563.6,954.7,568.5,962.2,572.2,969.8L572.2,969.8z M493.2,953.9    c-4.2,5.9-9.9,14.4-12.7,21.9c50.3,12.5,76,21.6,97.9,40.5c1.5-7.6,1.6-19.5,0.6-27C555,972.1,525.2,961.3,493.2,953.9z" class="color4f8ecc svgShape" clip-rule="evenodd"/><path fill="#7d4fcc" fill-rule="evenodd" d="M525.6,963.5c-7-13.4-11.1-25.7-12.2-36.9c3.3-3.5,7.8-6.7,10.5-7.2c8.3,15.1,13.8,23.8,19.7,29.8    c0,0,0.1,0.1,0.1,0.1c0.2-0.3,0.4-0.6,0.5-0.9c3.6-5.8,8.2-12.5,11.4-19.5c2.7,3.2,2.9,7.1,3.7,11.2c0.8,8.7-0.7,18.4-4.5,29.1    c-1.4-3.6-2.8-6.9-4.3-9.8c-2.1-4-4.3-7.3-6.8-10.1c-3.2,1.5-6.4,3.6-9.7,6.3C531.2,957.7,528.4,960.4,525.6,963.5z" class="color4f8ecc svgShape" clip-rule="evenodd"/><path fill="#ad7dff" fill-rule="evenodd" d="M524,919.5c2.4-1.7,4.7-4.3,6.9-7.7c-0.1-2.1-0.1-4.8,0-8c-10.2-12.4-10.1-19.2,0.4-20.7    c1.6,1.6,2.9,5.5,4.1,11.7c2.2,0.6,1.7-5.8,3.5-7.6c0-9.9,3-12,3.9-17.9c9-7.5,25.4-5.7,44.1,2.5c-3.2,18.4-9,62.2-30.3,55    l-0.8,2.3c-3.1,7-7.8,13.6-11.4,19.5l-0.6,0.8C537.8,943.3,532.3,934.6,524,919.5z" class="colorffb27d svgShape" clip-rule="evenodd"/><path fill="#3e1d77" fill-rule="evenodd" d="M585.5,872.9c-18.7-8.2-33.7-11.1-42.7-3.7c-0.9,5.9-3.4,9-3.4,18.8c-1.8,1.8-1.7,7.3-3.9,6.7    c-1.2-6.2-2.6-10.1-4.1-11.7c-10.4,1.4-10.6,8.3-0.4,20.7c-0.1,3.2-0.1,5.9,0,8c-18.6-19-19.8-53.1,4.3-62.4    c11.1-25,42.2,9.1,64.8,2.1C604.5,864.1,591.4,874.4,585.5,872.9z" class="color284191 svgShape" clip-rule="evenodd"/><path fill="#9561f0" fill-rule="evenodd" d="M542.3,920.9c3.3,1.9,10.1,4.8,14.2,5.8l-0.8,2.3c-0.6,1.4-1.3,2.7-2,4c0,0-0.1-0.1-0.1-0.1    C547.9,929,544.1,925,542.3,920.9z" class="colorf08261 svgShape" clip-rule="evenodd"/><path fill="#3e1d77" fill-rule="evenodd" d="M530.7,857.8c2.6-2.1,3.3-4.4,2.3-6.8c-4.2-2.1-8-2-11.6,0.3C523.6,851.3,526.7,853.5,530.7,857.8z" class="color284191 svgShape" clip-rule="evenodd"/><path fill="#3e1d77" fill-rule="evenodd" d="M537.5,850.9c-2.4,1.5-4.1,1.5-5.4,0c0.1-4.1,1.6-7.3,4.4-9.7C535.7,843.1,536,846.3,537.5,850.9z" class="color284191 svgShape" clip-rule="evenodd"/><path fill="#3e1d77" fill-rule="evenodd" d="M572.2,867.8c1.7-5.6,4.8-8.4,9.3-8.4c6.3,5.2,8.8,11.5,7.6,18.8C587.5,874.7,581.9,871.2,572.2,867.8z" class="color284191 svgShape" clip-rule="evenodd"/><path fill="#3e1d77" fill-rule="evenodd" d="M564.5,844.4c0.2,2.6-1.8,5.5,1.4,7.1c-0.5,11,11.4-0.8,12.3-4.7C576.5,847.5,571.9,846.7,564.5,844.4z" class="color284191 svgShape" clip-rule="evenodd"/><path fill="#a674fc" fill-rule="evenodd" d="M960.8,847.3c-31.9-61-107.2-84.6-168.3-52.7c-55.1,28.8-79.7,93-60.5,150.1l-0.8,0.4     c-3.5,1.8-4.8,6.1-3,9.6l11.7,22.4c1.8,3.5,6.1,4.8,9.6,3l0.8-0.4c35.9,48.3,102.7,64.8,157.7,36     C969,983.7,992.7,908.3,960.8,847.3L960.8,847.3z M945.3,855.4c27.4,52.5,7.1,117.3-45.4,144.8c-52.5,27.4-117.3,7.1-144.8-45.4     c-27.4-52.5-7.1-117.3,45.4-144.8C853.1,782.5,917.9,802.9,945.3,855.4z" class="colorfc9774 svgShape" clip-rule="evenodd"/><rect width="63.6" height="25.3" x="674" y="967.9" fill="#c6a8fb" fill-rule="evenodd" class="colorfbbfa8 svgShape" clip-rule="evenodd" transform="rotate(-27.593 705.832 980.54)"/><path fill="#8544f5" fill-rule="evenodd" d="M709.9,992.7l-11.7-22.4c-1.8-3.5-6.1-4.8-9.6-3l-51.4,26.9l-0.1,0l-111.1,58l0,0l-30.8,16.1l-111.1,58.1     c-3.5,1.8-4.8,6.1-3,9.6l11.7,22.4c1.8,3.5,6.1,4.8,9.6,3l51.4-26.9l0.1,0l111.1-58.1l30.8-16.1l0,0l111.1-58.1     C710.3,1000.4,711.7,996.1,709.9,992.7z" class="colorf57a44 svgShape" clip-rule="evenodd"/><path fill="#e9dffa" fill-rule="evenodd" d="M800.6,810c-52.5,27.4-72.8,92.3-45.4,144.8c27.4,52.5,92.3,72.8,144.8,45.4     c52.5-27.4,72.8-92.3,45.4-144.8C917.9,802.9,853.1,782.5,800.6,810z" class="colordfedfa svgShape" clip-rule="evenodd" opacity=".19"/><path fill="#fefefe" fill-rule="evenodd" d="M865.3,1011.3l73.1-167.4c-1.8-2.7-3.8-5.2-5.8-7.7l-76.9,176C858.9,1012.1,862.1,1011.8,865.3,1011.3     L865.3,1011.3z M810.8,1004.8c-15.7-6.2-29.9-16.1-41.4-29.2l77.7-177.8c17.2-0.5,34.2,3.2,49.5,10.5L810.8,1004.8L810.8,1004.8z      M847.6,1012.3c-6.4-0.2-12.8-0.9-19.1-2.2l84.1-192.4c5.2,3.7,10.1,7.9,14.6,12.5L847.6,1012.3z" class="colorfefefe svgShape" clip-rule="evenodd" opacity=".4"/><path fill="#ad7dff" fill-rule="evenodd" d="M427.3,1133L427.3,1133c-0.3-7.4-1.6-13.8-3.8-19.3c3.4-5.4,10.7-9,13.9-8.4l8.6,10.4    c9.3,5.2,16.3,10.1,21.2,14.7c-5.6,1.5-10,0.9-13.1-2c3.2,5.5,4.6,9,4.2,10.4c-12.1,9.6-20.4,13.1-24.8,10.5    C429.1,1142.3,427,1136.8,427.3,1133z" class="colorffb27d svgShape" clip-rule="evenodd"/><path fill="#9061e0" fill-rule="evenodd" d="M401.8,1052c3.3,20.9,11,43.7,23.8,67.8c4.1-2.8,14.3-9.5,17.4-7.8c-1.9-4.5-1.2-3.8-1.6-9.3    c-0.7-24.2-2.5-41.2-5.3-50.9C427.1,1052.5,415.7,1052.6,401.8,1052z" class="color61a0e0 svgShape" clip-rule="evenodd"/><path fill="#ad7dff" fill-rule="evenodd" d="M658.7,1042.1c1.2-1.1,5.8-5.8,10.5-10.2c6.8-0.3,16.3-6.6,17.9-12c1-7.3,3.8-10-1.8-14.6    c-2.2-0.2-7,2.6-11.9,8.3c0.3,5.2-5.2,6.8-8.7,8.7c-4.5,3-1.3,0.7-6.4,4c-2.3,1.9-5.4,3-6.6,4    C654.7,1033,657.1,1036.3,658.7,1042.1z" class="colorffb27d svgShape" clip-rule="evenodd"/></g><g class="color000000 svgShape"><path fill="#c4a4fc" fill-rule="evenodd" d="M1035.6,1122.1c10.9,20.5,15.2,37.8,12.9,51.7c16.4-6.8,19-37,7.8-90.4l0.5-0.1c37,39.9,63.1,55.2,78.1,45.8    c-12.7-6.2-24.3-19.7-34.7-40.4C1062.6,1009.4,992.5,1045.5,1035.6,1122.1z" class="colora4d0fc svgShape" clip-rule="evenodd"/><path fill="#9061e0" fill-rule="evenodd" d="M1070.9,1051.5c-24.9-16.9-49.6-3.3-48.9,27.8c5.4-6.6,14.2-13.6,25.1-19.2    C1055.5,1055.7,1063.7,1052.8,1070.9,1051.5z" class="color61a0e0 svgShape" clip-rule="evenodd"/><path fill="#9061e0" fill-rule="evenodd" d="M1068.6,1051c-6.8-4.2-13.6-6.1-19.7-6c-4.1,0.1-8,1.1-11.4,3c-3.4,1.9-6.4,4.6-8.7,8    c-3.6,5.3-5.7,12.3-5.9,20.7c2.5-2.8,5.7-5.7,9.3-8.4c4.2-3.2,9.1-6.4,14.5-9.1c4.1-2.1,8.2-3.9,12.2-5.3    C1062.3,1052.7,1065.5,1051.7,1068.6,1051L1068.6,1051z M1048.8,1043.3c7-0.2,14.8,2.2,22.6,7.5l-0.3,1.6    c-3.6,0.7-7.5,1.8-11.5,3.2c-3.9,1.4-7.9,3.2-12,5.3c-5.3,2.7-10.1,5.8-14.3,9c-4.3,3.3-7.9,6.7-10.6,10l-1.6-0.5    c-0.2-9.9,2.1-18.1,6.2-24.2c2.5-3.7,5.7-6.6,9.3-8.6C1040.3,1044.5,1044.4,1043.4,1048.8,1043.3z" class="color61a0e0 svgShape" clip-rule="evenodd"/><path fill="#9061e0" fill-rule="evenodd" d="M1033.8,1049.1c0.3,0.5,0.1,1.1-0.4,1.4c-0.5,0.3-1.1,0.1-1.4-0.4c-1-1.7-2.1-3.4-3.3-5.1     c-3.8-5.2-8.4-9.6-12.9-12.3c-4.3-2.6-8.4-3.6-11.3-1.9c-0.2,0.1-0.4,0.2-0.6,0.4l0,0c-2.5,1.9-4,4-4.6,6.2     c-0.4,1.4-0.5,2.9-0.2,4.2c0.2,1.3,0.8,2.6,1.6,3.6c0.9,1.3,2.2,2.2,3.7,2.6c1.6,0.5,3.3,0.6,4.7,0.3c0.8-0.2,1.5-0.5,2-1     c0.4-0.4,0.7-1,0.7-1.8c0-0.8-0.3-1.9-1-3.1c-0.3-0.5-0.1-1.1,0.4-1.4c0.5-0.3,1.1-0.1,1.4,0.4c0.9,1.6,1.3,2.9,1.3,4.1     c0,1.3-0.5,2.4-1.3,3.2c-0.8,0.8-1.8,1.3-3,1.6c-1.7,0.4-3.7,0.3-5.7-0.3c-1.9-0.6-3.5-1.8-4.7-3.4c-0.9-1.3-1.6-2.8-1.9-4.4     c-0.3-1.6-0.2-3.4,0.3-5.2c0.7-2.5,2.4-5,5.3-7.2l0.1-0.1c0.2-0.2,0.5-0.3,0.8-0.5c3.6-2,8.4-1,13.3,2c4.7,2.8,9.6,7.5,13.5,12.9     C1031.7,1045.5,1032.8,1047.3,1033.8,1049.1z" class="color61a0e0 svgShape" clip-rule="evenodd"/><path fill="#9061e0" fill-rule="evenodd" d="M1040.5,1045.6c0.2,0.5,0.8,0.7,1.3,0.5c0.5-0.2,0.7-0.8,0.5-1.3c-0.9-1.8-1.6-3.7-2.3-5.6     c-2-6.1-3-12.4-2.6-17.7c0.4-5,2-8.9,5-10.3c0.2-0.1,0.4-0.2,0.6-0.3l0,0c3-1,5.6-0.9,7.7-0.2c1.4,0.5,2.6,1.3,3.6,2.2     c0.9,1,1.6,2.1,2,3.3c0.5,1.5,0.5,3.1,0,4.5c-0.5,1.6-1.4,3-2.5,3.9c-0.6,0.6-1.3,0.9-2,1c-0.6,0.1-1.2,0-1.8-0.5     c-0.7-0.5-1.3-1.3-1.9-2.6c-0.2-0.5-0.8-0.7-1.3-0.5c-0.5,0.2-0.7,0.8-0.5,1.3c0.7,1.6,1.6,2.7,2.6,3.4c1.1,0.8,2.2,1,3.3,0.8     c1.1-0.2,2.1-0.7,3-1.5c1.3-1.1,2.4-2.9,3-4.8c0.6-1.8,0.6-3.9,0-5.8c-0.5-1.5-1.3-2.9-2.5-4.1c-1.2-1.2-2.6-2.2-4.4-2.8     c-2.5-0.8-5.5-0.9-8.9,0.2l-0.1,0c-0.3,0.1-0.6,0.2-0.9,0.4c-3.7,1.8-5.7,6.3-6.1,12c-0.4,5.5,0.6,12.1,2.7,18.5     C1038.8,1041.8,1039.6,1043.7,1040.5,1045.6z" class="color61a0e0 svgShape" clip-rule="evenodd"/><path fill="#d7c3fa" fill-rule="evenodd" d="M1062.6,1146.7c5.5,6.1,9.4,9.1,11.6,9c-2.4-27.5-3.5-41.2-3.5-41.2c22.3,18.1,32.7,26.2,31.3,24.4    c-0.1-5.7-0.6-11.2-1.5-16.4c-12.3-8-26.9-21-43.7-39.2l-0.5,0.1C1061.9,1110.5,1064.1,1131.6,1062.6,1146.7z" class="colorc3dffa svgShape" clip-rule="evenodd"/><path fill="#7d4fcc" fill-rule="evenodd" d="M1020.4,1081.2c1,0.2,1.6,1.1,1.4,2.1c-0.2,1-1.1,1.6-2,1.4c-2.7-0.5-5-0.2-6.7,1.1c-1.8,1.3-3.1,3.6-4,6.9    c-0.3,0.9-1.2,1.5-2.1,1.2c-0.9-0.2-1.5-1.2-1.2-2.1c1.1-4.1,2.9-7,5.3-8.8C1013.5,1081.1,1016.7,1080.5,1020.4,1081.2z" class="color4f8ecc svgShape" clip-rule="evenodd"/><path fill="#7d4fcc" fill-rule="evenodd" d="M1031.6,1115.2c0.9,0.2,1.6,1.1,1.4,2c-0.2,1-1.1,1.6-2.1,1.4c-2.7-0.5-5-0.2-6.7,1.1    c-1.8,1.3-3.1,3.6-4,6.9c-0.2,0.9-1.2,1.5-2.1,1.2c-0.9-0.3-1.5-1.2-1.2-2.1c1.1-4.1,2.9-7,5.3-8.8    C1024.7,1115.1,1027.9,1114.5,1031.6,1115.2z" class="color4f8ecc svgShape" clip-rule="evenodd"/><path fill="#7d4fcc" fill-rule="evenodd" d="M1075.3,1052.9c-0.4,0.9,0,1.9,0.9,2.3c0.9,0.4,1.9,0,2.3-0.9c1.2-2.5,2.7-4.2,4.7-4.8    c2.1-0.7,4.7-0.5,7.9,0.7c0.9,0.3,1.9-0.1,2.3-1c0.3-0.9-0.1-1.9-1-2.3c-4-1.5-7.4-1.7-10.3-0.7    C1079.1,1047.2,1076.8,1049.4,1075.3,1052.9z" class="color4f8ecc svgShape" clip-rule="evenodd"/><path fill="#7d4fcc" fill-rule="evenodd" d="M1096.6,1081.7c-0.4,0.9,0,1.9,0.9,2.3c0.9,0.4,1.9,0,2.3-0.9c1.2-2.5,2.7-4.2,4.7-4.8    c2.1-0.7,4.7-0.5,7.9,0.7c0.9,0.3,1.9-0.1,2.3-1c0.3-0.9-0.1-1.9-1-2.3c-4-1.5-7.4-1.7-10.3-0.7    C1100.4,1076,1098.1,1078.2,1096.6,1081.7z" class="color4f8ecc svgShape" clip-rule="evenodd"/><path fill="#9061e0" fill-rule="evenodd" d="M1091.8,1131.5c-5.1-4.1-12.2-9.7-21.2-17l2.4,28.4c7.9,2.9,12.9,3.2,14.8,0.9    C1090.2,1139,1091.5,1134.9,1091.8,1131.5z" class="color61a0e0 svgShape" clip-rule="evenodd"/><path fill="#c4a4fc" fill-rule="evenodd" d="M1036.4,1121.7c5.5,10.3,9.3,19.8,11.5,28.5c2,8.1,2.6,15.4,1.8,22.1c7-3.8,11-12.5,12.2-26.3    c1.3-15-0.9-35.8-6.4-62.4l-0.2-0.9l0.9-0.1l0.5-0.1l0.5-0.1l0.3,0.3c18.5,19.9,34.2,33.6,47.1,41.2c11.9,7,21.4,8.7,28.5,5.2    c-5.9-3.2-11.6-7.9-17-14.2c-5.8-6.8-11.4-15.4-16.6-25.8l0,0c-13.2-27.8-30.3-41.3-45.1-43.7c-6-1-11.5-0.1-16.2,2.3    c-4.7,2.4-8.6,6.5-11.3,11.9C1020.2,1073.1,1021.2,1094.8,1036.4,1121.7L1036.4,1121.7L1036.4,1121.7z M1046.1,1150.7    c-2.1-8.5-5.9-17.9-11.3-28.1c-15.4-27.4-16.5-49.8-9.7-63.7c2.8-5.8,7-10.1,12.1-12.7c5.1-2.6,11-3.5,17.3-2.5    c15.3,2.5,32.9,16.3,46.4,44.7c5.2,10.3,10.7,18.8,16.4,25.5c5.7,6.6,11.7,11.5,17.9,14.5l1.4,0.7l-1.4,0.9    c-7.8,4.9-18.4,3.4-31.7-4.4c-12.7-7.5-28.1-20.8-46-40c5.3,25.7,7.3,45.9,6,60.6c-1.3,15.4-6.3,24.9-14.8,28.5l-1.5,0.6l0.3-1.6    C1048.7,1166.9,1048.2,1159.2,1046.1,1150.7z" class="colora4d0fc svgShape" clip-rule="evenodd"/><path fill="#e9dffa" fill-rule="evenodd" d="M1051.1,1091.2c-0.1-0.3,0.1-0.5,0.4-0.6c0.3-0.1,0.5,0.1,0.6,0.4c2.7,13.3,4.4,24.2,5,32.8    c0.6,8.7,0.1,15-1.6,18.9c-0.1,0.3-0.4,0.4-0.7,0.3c-0.3-0.1-0.4-0.4-0.3-0.7c1.6-3.8,2.1-10,1.5-18.5    C1055.5,1115.3,1053.8,1104.4,1051.1,1091.2z" class="colordfedfa svgShape" clip-rule="evenodd"/><path fill="#e9dffa" fill-rule="evenodd" d="M1078.3,1100.6c-0.2-0.2-0.2-0.5,0-0.7c0.2-0.2,0.5-0.2,0.7,0c5.3,4.9,9.9,8.8,14,11.5    c4,2.8,7.4,4.5,10.2,5.1c0.3,0.1,0.4,0.3,0.4,0.6c-0.1,0.3-0.3,0.4-0.6,0.4c-2.9-0.7-6.4-2.4-10.5-5.3    C1088.3,1109.4,1083.6,1105.5,1078.3,1100.6z" class="colordfedfa svgShape" clip-rule="evenodd"/></g><g class="color000000 svgShape"><path fill="#c4a4fc" fill-rule="evenodd" d="M720.1,1150.4c-4.1,14.2-9.7,24.1-16.9,29.5c10.6,4.1,25.1-8.6,43.5-38.1l0.3,0.2    c-0.6,34.7,4.6,53.3,15.7,55.6c-3.1-8.5-2.5-19.8,1.9-33.9C782.4,1110.5,734.2,1096.1,720.1,1150.4z" class="colora4d0fc svgShape" clip-rule="evenodd"/><path fill="#9061e0" fill-rule="evenodd" d="M767.6,1133.5c-4-18.8-21.3-23.4-34.7-8.8c5.4-0.7,12.5,0.1,20,2.3C758.6,1128.6,763.7,1131,767.6,1133.5z" class="color61a0e0 svgShape" clip-rule="evenodd"/><path fill="#9061e0" fill-rule="evenodd" d="M766.8,1132.3c-1.3-5-3.5-8.8-6.4-11.5c-1.9-1.8-4.2-3-6.5-3.7c-2.4-0.6-4.9-0.7-7.6-0.1    c-4,0.8-8.1,3.1-11.9,6.9c2.4-0.2,5.1-0.1,8,0.2c3.4,0.4,7,1.1,10.7,2.2c2.8,0.8,5.5,1.8,8,2.9    C763.1,1130.2,765,1131.2,766.8,1132.3L766.8,1132.3z M761.1,1120c3.3,3,5.8,7.6,7.1,13.4l-0.9,0.6c-2-1.3-4.2-2.5-6.7-3.6    c-2.4-1.1-5-2-7.8-2.9c-3.7-1.1-7.2-1.8-10.5-2.2c-3.4-0.4-6.6-0.4-9.3-0.1l-0.5-0.9c4.3-4.7,9-7.4,13.5-8.4    c2.8-0.6,5.5-0.5,8.1,0.2C756.6,1116.8,759,1118.1,761.1,1120z" class="color61a0e0 svgShape" clip-rule="evenodd"/><path fill="#9061e0" fill-rule="evenodd" d="M751.6,1116c-0.1,0.3-0.4,0.5-0.8,0.5c-0.3-0.1-0.5-0.4-0.5-0.8c0.3-1.2,0.6-2.5,0.7-3.8     c0.6-4,0.4-8.1-0.5-11.4c-0.8-3.1-2.3-5.3-4.3-5.9c-0.1,0-0.3-0.1-0.4-0.1l0,0c-2-0.2-3.6,0.1-4.8,0.8c-0.8,0.5-1.5,1.1-2,1.8     c-0.5,0.7-0.8,1.5-0.9,2.3c-0.1,1,0,2,0.5,2.8c0.5,0.9,1.3,1.7,2,2.2c0.5,0.3,0.9,0.4,1.4,0.4c0.4,0,0.8-0.2,1.1-0.5     c0.4-0.4,0.7-1,0.9-1.9c0.1-0.3,0.4-0.6,0.8-0.5c0.3,0.1,0.6,0.4,0.5,0.8c-0.3,1.1-0.7,1.9-1.2,2.5c-0.6,0.6-1.3,0.9-2,0.9     c-0.7,0-1.4-0.2-2.1-0.6c-0.9-0.6-1.8-1.5-2.5-2.6c-0.6-1.1-0.8-2.4-0.7-3.6c0.1-1,0.5-2,1.1-2.9c0.6-0.9,1.4-1.7,2.4-2.3     c1.4-0.8,3.3-1.2,5.6-1l0.1,0c0.2,0,0.4,0.1,0.6,0.1c2.6,0.7,4.3,3.3,5.3,6.8c0.9,3.4,1.1,7.7,0.5,11.9     C752.2,1113.4,752,1114.7,751.6,1116z" class="color61a0e0 svgShape" clip-rule="evenodd"/><path fill="#9061e0" fill-rule="evenodd" d="M756.2,1117.4c-0.1,0.3,0.1,0.7,0.4,0.8c0.3,0.1,0.7-0.1,0.8-0.4c0.4-1.2,0.9-2.4,1.4-3.6     c1.7-3.7,4.1-7,6.6-9.3c2.4-2.1,4.8-3.2,6.9-2.6c0.1,0,0.3,0.1,0.4,0.2l0,0c1.8,0.9,3,2.1,3.6,3.3c0.4,0.9,0.6,1.8,0.7,2.6     c0,0.9-0.2,1.7-0.5,2.4c-0.4,0.9-1.1,1.7-2,2.1c-1,0.5-2,0.8-2.9,0.7c-0.5,0-1-0.1-1.4-0.4c-0.3-0.2-0.6-0.6-0.6-1     c-0.1-0.5,0-1.2,0.3-2.1c0.1-0.3-0.1-0.7-0.4-0.8c-0.3-0.1-0.7,0.1-0.8,0.4c-0.4,1.1-0.5,2-0.3,2.7c0.2,0.8,0.6,1.4,1.2,1.8     c0.6,0.4,1.3,0.6,2,0.6c1.1,0,2.4-0.3,3.5-0.9c1.1-0.6,2-1.5,2.5-2.7c0.4-0.9,0.7-1.9,0.7-3c0-1.1-0.3-2.2-0.8-3.2     c-0.8-1.5-2.1-2.9-4.2-3.9l0,0c-0.2-0.1-0.4-0.2-0.6-0.2c-2.5-0.8-5.4,0.4-8.1,2.8c-2.6,2.3-5.1,5.8-6.9,9.7     C757.2,1114.9,756.7,1116.1,756.2,1117.4z" class="color61a0e0 svgShape" clip-rule="evenodd"/><path fill="#d7c3fa" fill-rule="evenodd" d="M721.7,1173.7c-0.2,5.3,0.3,8.3,1.4,9.2c11-13.7,16.6-20.5,16.6-20.5c2.3,18.2,3.5,26.5,3.6,25.1    c2.5-2.7,4.6-5.4,6.6-8.2c-2.1-9.1-3.1-21.5-2.8-37.3l-0.3-0.2C737.4,1156.7,729.1,1167.3,721.7,1173.7z" class="colorc3dffa svgShape" clip-rule="evenodd"/><path fill="#7d4fcc" fill-rule="evenodd" d="M731.3,1124.9c0.4,0.5,0.2,1.2-0.3,1.6c-0.5,0.4-1.2,0.2-1.6-0.3c-1-1.5-2.2-2.3-3.6-2.5    c-1.4-0.2-3,0.3-4.9,1.4c-0.5,0.3-1.2,0.2-1.5-0.4c-0.3-0.5-0.2-1.2,0.4-1.5c2.3-1.4,4.4-2,6.3-1.7    C728.2,1121.8,729.8,1122.9,731.3,1124.9z" class="color4f8ecc svgShape" clip-rule="evenodd"/><path fill="#7d4fcc" fill-rule="evenodd" d="M721.4,1145.4c0.4,0.5,0.2,1.2-0.3,1.6c-0.5,0.4-1.2,0.2-1.6-0.3c-1-1.5-2.2-2.3-3.6-2.5    c-1.4-0.2-3,0.3-4.9,1.4c-0.5,0.3-1.2,0.2-1.5-0.4c-0.3-0.5-0.2-1.2,0.4-1.5c2.3-1.4,4.4-2,6.3-1.7    C718.3,1142.3,720,1143.5,721.4,1145.4z" class="color4f8ecc svgShape" clip-rule="evenodd"/><path fill="#7d4fcc" fill-rule="evenodd" d="M769,1136.1c-0.6,0.2-0.9,0.9-0.6,1.5c0.2,0.6,0.9,0.9,1.5,0.6c1.7-0.7,3.1-0.7,4.3-0.1    c1.3,0.6,2.4,1.9,3.3,3.8c0.3,0.6,0.9,0.8,1.5,0.5c0.6-0.3,0.8-0.9,0.5-1.5c-1.2-2.4-2.6-4.1-4.4-4.9    C773.3,1135.1,771.3,1135.2,769,1136.1z" class="color4f8ecc svgShape" clip-rule="evenodd"/><path fill="#7d4fcc" fill-rule="evenodd" d="M766.1,1158.7c-0.6,0.2-0.9,0.9-0.6,1.5c0.2,0.6,0.9,0.9,1.5,0.6c1.7-0.7,3.1-0.7,4.3-0.1    c1.3,0.6,2.4,1.9,3.3,3.8c0.3,0.6,0.9,0.8,1.5,0.5s0.8-0.9,0.5-1.5c-1.2-2.4-2.6-4.1-4.4-4.9    C770.4,1157.8,768.3,1157.8,766.1,1158.7z" class="color4f8ecc svgShape" clip-rule="evenodd"/><path fill="#9061e0" fill-rule="evenodd" d="M741.9,1179.6c-0.6-4.1-1.3-9.9-2.2-17.2l-11.4,14.1c2.4,4.8,4.5,7.2,6.4,7    C737.8,1182.2,740.2,1180.9,741.9,1179.6z" class="color61a0e0 svgShape" clip-rule="evenodd"/><path fill="#c4a4fc" fill-rule="evenodd" d="M720.7,1150.5c-2,7.2-4.5,13.2-7.3,18.2c-2.6,4.6-5.6,8.2-9,10.9c4.9,1.4,10.6-0.9,17.2-6.7    c7.2-6.3,15.4-16.8,24.6-31.5l0.3-0.5l0.5,0.4l0.3,0.2l0.2,0.2l0,0.3c-0.3,17.3,0.9,30.6,3.5,39.8c2.4,8.5,6,13.5,10.8,15    c-1.3-4.1-1.8-8.8-1.5-14.1c0.3-5.7,1.6-12.1,3.8-19.2l0,0c6.2-18.6,4.3-32.4-1.4-40c-2.3-3.1-5.2-5.1-8.5-6.1    c-3.3-1-6.8-0.8-10.4,0.5C734.8,1121,725.6,1131.5,720.7,1150.5L720.7,1150.5L720.7,1150.5z M712.4,1168.2    c2.8-4.9,5.2-10.8,7.2-17.9c5-19.4,14.5-30.2,23.7-33.6c3.8-1.4,7.7-1.5,11.2-0.5c3.5,1,6.6,3.2,9.1,6.5c5.9,7.9,8,22,1.6,41.1    c-2.2,7-3.4,13.3-3.7,19c-0.3,5.6,0.3,10.5,1.8,14.6l0.4,1l-1-0.2c-5.8-1.2-10-6.6-12.7-16c-2.6-9.1-3.7-22-3.5-38.7    c-8.9,14.1-16.9,24.3-24,30.5c-7.4,6.5-13.9,8.7-19.4,6.6l-1-0.4l0.8-0.6C706.4,1176.8,709.6,1173,712.4,1168.2z" class="colora4d0fc svgShape" clip-rule="evenodd"/><path fill="#e9dffa" fill-rule="evenodd" d="M741,1143c0.1-0.2,0.3-0.2,0.4-0.1c0.1,0.1,0.2,0.3,0.1,0.4c-4.6,7.3-8.7,13.1-12.2,17.3    c-3.6,4.2-6.6,6.9-9.1,8c-0.2,0.1-0.4,0-0.4-0.2c-0.1-0.2,0-0.4,0.2-0.4c2.4-1.1,5.4-3.7,8.9-7.8    C732.3,1156,736.4,1150.3,741,1143z" class="colordfedfa svgShape" clip-rule="evenodd"/><path fill="#e9dffa" fill-rule="evenodd" d="M749.3,1159.4c0-0.2,0.1-0.3,0.3-0.3c0.2,0,0.3,0.1,0.3,0.3c0.3,4.6,0.7,8.4,1.3,11.5c0.6,3,1.4,5.3,2.4,6.8    c0.1,0.1,0.1,0.3-0.1,0.4c-0.1,0.1-0.3,0.1-0.4-0.1c-1-1.6-1.9-3.9-2.5-7.1C750,1167.8,749.6,1164,749.3,1159.4z" class="colordfedfa svgShape" clip-rule="evenodd"/></g><g class="color000000 svgShape"><rect width="131.1" height="69.4" x="1281.4" y="1192.5" fill="#fff" fill-rule="evenodd" class="colorffffff svgShape" clip-rule="evenodd"/><rect width="131.1" height="29.8" x="1281.4" y="1281.7" fill="#fff" fill-rule="evenodd" class="colorffffff svgShape" clip-rule="evenodd"/><path fill="#7d4fcc" fill-rule="evenodd" d="M1350.9,1199.8c-2.7-4.3-5.1-7.4-7.3-9.2c10.4-5.7,16.2-11.9,17.3-18.6c1.5,1.3,2.8,3,3.9,4.9    C1361,1186,1356.3,1193.7,1350.9,1199.8z" class="color4f8ecc svgShape" clip-rule="evenodd"/><path fill="#7d4fcc" fill-rule="evenodd" d="M1336.3,1199.8c2.7-4.3,5.1-7.4,7.3-9.2c-10.4-5.7-16.2-11.9-17.3-18.6c-1.5,1.3-2.8,3-3.9,4.9    C1326.3,1186,1330.9,1193.7,1336.3,1199.8z" class="color4f8ecc svgShape" clip-rule="evenodd"/><path fill="#ad8be9" fill-rule="evenodd" d="M1428.5,1208.7c-11.2-15.6-32.5-26.2-63.6-31.9c-3.9,9.2-8.5,16.9-13.9,23c-2.7-4.3-5.1-7.4-7.3-9.2    c-2.2,1.9-4.6,4.9-7.3,9.2c-5.4-6.1-10-13.8-13.9-23c-31.2,5.7-52.4,16.4-63.6,31.9c-8.6,25.2-14.3,45.1-17,59.9    c9.1,2,19.6,4.3,31.5,6.9c-1.6,28.4-2,52.7-1.2,72.8c16.6,4.8,39.8,13.5,67.5,25c1.4,0,2.8-0.1,4.1-0.2c1.3,0.1,2.7,0.2,4.1,0.2    c27.7-11.6,50.9-20.2,67.5-25c0.8-20.1,0.4-44.4-1.2-72.8c11.9-2.7,22.4-5,31.5-6.9C1442.7,1253.8,1437.1,1233.9,1428.5,1208.7z" class="color8bbae9 svgShape" clip-rule="evenodd"/><path fill="#9061e0" fill-rule="evenodd" d="M1409,1227.9c2.2,14.2,3.9,30.1,5,47.6c1.5-0.3,3-0.7,4.4-1C1416.5,1263.7,1413.3,1248.2,1409,1227.9z" class="color61a0e0 svgShape" clip-rule="evenodd"/><path fill="#9061e0" fill-rule="evenodd" d="M1278.2,1227.9c-2.2,14.2-3.9,30.1-5,47.6c-1.5-0.3-3-0.7-4.4-1C1270.7,1263.7,1273.9,1248.2,1278.2,1227.9z" class="color61a0e0 svgShape" clip-rule="evenodd"/><path fill="#7445c6" fill-rule="evenodd" d="M1408.1,1403.9c3.4,8.5-2.8,22.3-7,25c-76.1-7.6-123.7-18.3-153-33.2c-8.7-4.8-24-6.9-33.3-13.1    c-22.5-23.7-5.7-54.9,16.7-53.3c15.6,3,22.9,7.5,30.3,16.3C1288.5,1351.7,1342.8,1373.3,1408.1,1403.9z" class="color4567c6 svgShape" clip-rule="evenodd"/><path fill="#3e1d77" fill-rule="evenodd" d="M1489.1,1416.6c3.1,20.8-22.9,24.1-76.2,15c22.4-7.4,25.4-13.9,8.7-24.4    C1468,1398.9,1489.2,1399,1489.1,1416.6L1489.1,1416.6z M1198.1,1416.6c-3.1,20.8,22.9,24.1,76.2,15c-22.4-7.4-25.4-13.9-8.7-24.4    C1219.3,1398.9,1198.1,1399,1198.1,1416.6z" class="color284191 svgShape" clip-rule="evenodd"/><path fill="#ad7dff" fill-rule="evenodd" d="M1402.1,1428.1c4.5,0.9,8.1,2,10.8,3.5c22.4-7.4,25.4-13.9,8.7-24.4c-3.8,0.2-8.1-0.3-12.9-1.5    C1410.4,1413.7,1405.8,1424.5,1402.1,1428.1L1402.1,1428.1z M1285.1,1428.1c-4.5,0.9-8.1,2-10.8,3.5c-22.4-7.4-25.4-13.9-8.7-24.4    c3.8,0.2,8.1-0.3,12.9-1.5C1276.8,1413.7,1281.4,1424.5,1285.1,1428.1z" class="colorffb27d svgShape" clip-rule="evenodd"/><path fill="#ad7dff" fill-rule="evenodd" d="M1442.7,1316c1.8-15,1.4-30.5-1.4-46.6c-6.9,1.5-14.6,3.2-22.9,5.1c-1.5,0.3-2.9,0.7-4.4,1    c1.5,27.5,2,51.2,1.3,70.9C1428.9,1335.4,1438.1,1325.3,1442.7,1316z" class="colorffb27d svgShape" clip-rule="evenodd"/><path fill="#ad7dff" fill-rule="evenodd" d="M1244.5,1316c-1.8-15-1.4-30.5,1.4-46.6c6.9,1.5,14.6,3.2,22.9,5.1c1.5,0.3,2.9,0.7,4.4,1    c-1.5,27.5-2,51.2-1.3,70.9C1258.3,1335.4,1249.2,1325.3,1244.5,1316z" class="colorffb27d svgShape" clip-rule="evenodd"/><path fill="#9561f0" fill-rule="evenodd" d="M1421.9,1312.1c-0.1-10.7-0.5-23.4-1.2-38.1c-0.8,0.2-1.5,0.3-2.3,0.5c-1.5,0.3-2.9,0.7-4.4,1    c1,17,1.5,32.5,1.6,46.5c1.2-1.5,2.7-3.1,4.3-5.1c4.7-2,9.4-3,14.2-3C1428.7,1312.3,1424.6,1311.6,1421.9,1312.1L1421.9,1312.1z     M1265.3,1312.1c0.1-10.7,0.5-23.4,1.2-38.1c0.8,0.2,1.5,0.3,2.3,0.5c1.5,0.3,2.9,0.7,4.4,1c-1,17-1.5,32.5-1.6,46.5    c-1.2-1.5-2.7-3.1-4.3-5.1c-4.7-2-9.4-3-14.2-3C1258.6,1312.3,1262.6,1311.6,1265.3,1312.1z" class="colorf08261 svgShape" clip-rule="evenodd"/><path fill="#9061e0" fill-rule="evenodd" d="M1274.1,1283.3h139.1c1.3,0,2.4,1.1,2.4,2.4v62.6c-16.6,4.8-39.9,13.4-67.7,25h-8.6    c-27.8-11.6-51.1-20.2-67.7-25v-62.6C1271.7,1284.3,1272.7,1283.3,1274.1,1283.3z" class="color61a0e0 svgShape" clip-rule="evenodd"/><path fill="#601ed1" fill-rule="evenodd" d="M1278.1,1350.2c16,5,36.9,12.9,61.2,23.1l0.2,0.1l1.7-0.1h2.4h2.4l1.7,0.1c24.4-10.2,45.4-18.1,61.4-23.2    v-51.7c-9.1,11.6-27.3,21.2-50.6,26.9c0.1,0.8,0.2,1.5,0.2,2.3c0,8.3-6.7,15.1-15.1,15.1c-7.5,0-13.6-5.4-14.9-12.5    c-6.7,0.6-13.6,0.9-20.7,0.9c-10.4,0-20.4-0.7-29.9-2V1350.2z" class="color1e77d1 svgShape" clip-rule="evenodd"/><path fill="#ad7dff" fill-rule="evenodd" d="M1329.1,1101.5c9.4,13,24.3,24.5,44.7,34.4c-5.1,15.3-12.8,30.2-29.6,33c-16.1-2.6-25-14.2-28.7-30.8    C1324.1,1128.4,1328.6,1116.2,1329.1,1101.5z" class="colorffb27d svgShape" clip-rule="evenodd"/><path fill="#3e1d77" fill-rule="evenodd" d="M1390.2,1109.8c0-25.7-21.1-46.8-46.8-46.8s-46.8,21.1-46.8,46.8v73.6c7.7-2.7,16.3-4.9,25.8-6.6    c1.1-1.9,2.3-3.5,3.9-4.9c1.1,6.8,6.9,13,17.3,18.6c10.4-5.7,16.2-11.9,17.3-18.6c1.5,1.3,2.8,3,3.9,4.9    c9.4,1.7,17.8,3.9,25.4,6.5V1109.8L1390.2,1109.8z M1329.1,1101.5c9.4,13,24.3,24.5,44.7,34.4c-5.1,15.3-12.8,30.2-29.6,33    c-16.1-2.6-25-14.2-28.7-30.8C1324.1,1128.4,1328.6,1116.2,1329.1,1101.5z" class="color284191 svgShape" clip-rule="evenodd"/><path fill="#ad7dff" fill-rule="evenodd" d="M1361,1171.9c-1.2-1.8-2-5.1-2.5-9.8c-3.9,3.3-8.6,5.7-14.4,6.7c-6.8-1.1-12.3-3.8-16.6-7.7    c-0.1,4.3-0.6,7.9-1.2,10.8c1.1,6.8,6.9,13,17.3,18.6C1354,1184.9,1359.8,1178.7,1361,1171.9z" class="colorffb27d svgShape" clip-rule="evenodd"/><path fill="#9561f0" fill-rule="evenodd" d="M1359,1165.7c-0.2-1.1-0.3-2.3-0.5-3.5c-3.9,3.3-8.6,5.7-14.4,6.7c-6.8-1.1-12.3-3.8-16.6-7.7    c-0.1,1.5-0.1,3-0.3,4.3c4,2.7,9.7,5.1,17,7C1348.9,1171.2,1353.8,1169.4,1359,1165.7z" class="colorf08261 svgShape" clip-rule="evenodd"/><path fill="#3e1d77" fill-rule="evenodd" d="M1296.6,1149.9h21.1l-2.7,86.3h-9.9l1.9-28.1l-4.9,28.1h-13.4C1293.7,1215.9,1298.3,1171.4,1296.6,1149.9z" class="color284191 svgShape" clip-rule="evenodd"/><path fill="#3e1d77" fill-rule="evenodd" d="M1369.2,1150.9l19.8-1.7c-0.5,31,0,67.2,3.4,88.1h-10l-0.8-2.6l-1.2,2.6h-3.6l-2.5-18l-0.7,18h-7.4    L1369.2,1150.9z" class="color284191 svgShape" clip-rule="evenodd"/><path fill="#601ed1" fill-rule="evenodd" d="M1343.6,1318c5.4,0,9.7,4.4,9.7,9.7c0,5.4-4.4,9.7-9.7,9.7c-5.4,0-9.7-4.4-9.7-9.7    C1333.9,1322.4,1338.2,1318,1343.6,1318z" class="color1e77d1 svgShape" clip-rule="evenodd"/><path fill="#7445c6" fill-rule="evenodd" d="M1279.1,1403.9c-3.4,8.5,2.8,22.3,7,25c76.1-7.6,123.7-18.3,153-33.2c8.7-4.8,24-6.9,33.3-13.1    c22.5-23.7,5.7-54.9-16.7-53.3c-15.6,3-22.9,7.5-30.3,16.3C1398.8,1351.7,1344.4,1373.3,1279.1,1403.9z" class="color4567c6 svgShape" clip-rule="evenodd"/><path fill="#673bb3" fill-rule="evenodd" d="M1338.5,1373c-41.6,16.2-74.4,22.7-98.3,19.5c2.9,1,5.6,2.1,7.9,3.3c7.7,3.9,16.6,7.5,26.9,10.8    c1.2-0.2,2.4-0.5,3.6-0.8c0.1-0.7,0.3-1.3,0.6-1.9c23.1-10.8,44.8-20.6,64.5-28.8c-1.4-0.6-2.7-1.2-4.1-1.7    c-0.1,0-0.1-0.1-0.2-0.1C1339,1373.2,1338.8,1373.1,1338.5,1373z" class="color3b5bb3 svgShape" clip-rule="evenodd"/><path fill="#673bb3" fill-rule="evenodd" d="M1408.9,1407.6c-17.6,5.4-39.1,10.1-65.3,14.2c17.1,2.6,36.2,5,57.5,7.2c0.3-0.2,0.6-0.5,1-0.8    C1405.6,1424.7,1409.7,1415.2,1408.9,1407.6z" class="color3b5bb3 svgShape" clip-rule="evenodd"/><path fill="#3e1d77" fill-rule="evenodd" d="M1322.6,1097.7c8-5.8,14.2-6.1,18.7-0.9c0.4,14.3-4.2,25.8-13.6,34.5    C1330.1,1124.6,1328.4,1113.4,1322.6,1097.7z" class="color284191 svgShape" clip-rule="evenodd"/></g><path fill="#e9dffa" fill-rule="evenodd" d="M1487.3,1097.2c47.4,0,86-38.7,86-86c0-47.4-38.7-86-86-86c-47.4,0-86,38.7-86,86   C1401.3,1058.5,1439.9,1097.2,1487.3,1097.2z" class="colordfedfa svgShape" clip-rule="evenodd"/><path fill="#9061e0" fill-rule="evenodd" d="M1487.3,923.8c24.1,0,46,9.8,61.8,25.6c15.8,15.8,25.6,37.6,25.6,61.8c0,24.1-9.8,46-25.6,61.8   c-15.8,15.8-37.6,25.6-61.8,25.6c-24.1,0-46-9.8-61.8-25.6c-15.8-15.8-25.6-37.6-25.6-61.8c0-24.1,9.8-46,25.6-61.8   C1441.4,933.6,1463.2,923.8,1487.3,923.8L1487.3,923.8z M1547.2,951.2c-15.3-15.3-36.5-24.8-59.9-24.8c-23.4,0-44.6,9.5-59.9,24.8   c-15.3,15.3-24.8,36.5-24.8,59.9c0,23.4,9.5,44.6,24.8,59.9c15.3,15.3,36.5,24.8,59.9,24.8c23.4,0,44.6-9.5,59.9-24.8   c15.3-15.3,24.8-36.5,24.8-59.9C1572.1,987.8,1562.6,966.6,1547.2,951.2z" class="color61a0e0 svgShape" clip-rule="evenodd"/><path fill="#9061e0" fill-rule="evenodd" d="M1462.7,1042.5v-9.3l-35.6-16.4v-0.2l35.6-16.5v-9.4l-46.2,22.5v6.9L1462.7,1042.5L1462.7,1042.5z M1499.7,976   h-8.5l-22.4,70.3h8.5L1499.7,976L1499.7,976z M1505.1,990.7v9.2l37,16.6v0.2l-37,16.6v9.2l46.3-21.9v-8L1505.1,990.7z" class="color61a0e0 svgShape" clip-rule="evenodd"/><path fill="#efeaf8" fill-rule="evenodd" d="M357.8,734.4l-6.8,4c-2.3,1.3-3.1,4.3-1.7,6.6l1.5,2.6c1.8,3,1,4.4,0.4,4.9c-1.5,1.4-2.9,2.8-4.3,4.3   c-0.4,0.4-1.7,1.9-5.2-0.1l-2.4-1.4c-2.3-1.3-5.3-0.5-6.6,1.7l-4,6.8c-1.3,2.3-0.5,5.3,1.7,6.6l2.4,1.4c3.2,1.9,3.2,2.9,2.8,4.2   c-0.6,1.9-1.2,3.8-1.6,5.7c-0.4,1.7-0.2,3-4.6,3h-2.7c-2.7,0-4.8,2.2-4.8,4.8v7.9c0,2.7,2.2,4.8,4.8,4.8h2.7c4.4,0,4.3,1.2,4.6,3   c0.4,2,1,3.8,1.6,5.7c0.4,1.4,0.5,2.3-2.8,4.2l-2.4,1.4c-2.3,1.3-3.1,4.3-1.7,6.6l4,6.8c1.3,2.3,4.3,3.1,6.6,1.7l2.4-1.4   c3.5-2,4.8-0.5,5.2-0.1c1.4,1.5,2.8,2.9,4.3,4.3c0.6,0.5,1.3,1.9-0.4,4.9l-1.5,2.6c-1.3,2.3-0.6,5.3,1.7,6.6l6.8,4   c2.3,1.3,5.3,0.6,6.6-1.7l1.5-2.6c1.8-3.1,3.6-3,4.3-2.7c2.2,0.7,4.2,1.1,6.4,1.7c0.8,0.2,2.2,0.8,2.2,4.5v2.8   c0,2.7,2.2,4.8,4.8,4.8h7.9c2.7,0,4.8-2.2,4.8-4.8v-2.8c0-3.7,1.4-4.3,2.2-4.5c2.2-0.6,4.2-1,6.4-1.7c0.7-0.2,2.5-0.4,4.3,2.7   l1.5,2.6c1.3,2.3,4.3,3.1,6.6,1.7l6.8-4c2.3-1.3,3.1-4.3,1.7-6.6l-1.5-2.6c-1.8-3-1-4.4-0.4-4.9c1.5-1.4,2.9-2.8,4.3-4.3   c0.4-0.4,1.7-1.9,5.2,0.1l2.4,1.4c2.3,1.3,5.3,0.5,6.6-1.7l4-6.8c1.3-2.3,0.6-5.3-1.7-6.6l-2.4-1.4c-3.2-1.9-3.2-2.9-2.8-4.2   c0.6-1.9,1.2-3.8,1.6-5.7c0.4-1.7,0.2-3,4.6-3h2.7c2.7,0,4.8-2.2,4.8-4.8v-7.9c0-2.7-2.2-4.8-4.8-4.8h-2.7c-4.4,0-4.3-1.2-4.6-3   c-0.4-2-1-3.8-1.6-5.7c-0.4-1.4-0.5-2.3,2.8-4.2l2.4-1.4c2.3-1.3,3.1-4.3,1.7-6.6l-4-6.8c-1.3-2.3-4.3-3.1-6.6-1.7l-2.4,1.4   c-3.5,2-4.8,0.5-5.2,0.1c-1.4-1.5-2.8-2.9-4.3-4.3c-0.6-0.5-1.3-1.9,0.4-4.9l1.5-2.6c1.3-2.3,0.5-5.3-1.7-6.6l-6.8-4   c-2.3-1.3-5.3-0.6-6.6,1.7l-1.5,2.6c-1.8,3.1-3.6,3-4.3,2.7c-2.2-0.7-4.2-1.1-6.4-1.7c-0.8-0.2-2.2-0.8-2.2-4.5v-2.8   c0-2.7-2.2-4.8-4.8-4.8h-7.9c-2.7,0-4.8,2.2-4.8,4.8v2.8c0,3.7-1.4,4.3-2.2,4.5c-2.2,0.6-4.2,1-6.4,1.7c-0.7,0.2-2.5,0.4-4.3-2.7   l-1.5-2.6C363,733.9,360.1,733.1,357.8,734.4L357.8,734.4z M387.6,783.2c5.7,0,10.4,4.7,10.4,10.4c0,5.7-4.7,10.4-10.4,10.4   c-5.7,0-10.4-4.7-10.4-10.4C377.2,787.8,381.9,783.2,387.6,783.2L387.6,783.2z M355,793.6c0-1.2,1-2.2,2.2-2.2c1.2,0,2.2,1,2.2,2.2   c0,7.8,3.2,14.8,8.2,19.9s12.1,8.2,19.9,8.2c1.2,0,2.2,1,2.2,2.2c0,1.2-1,2.2-2.2,2.2c-9,0-17.2-3.7-23.1-9.6   C358.6,810.7,355,802.6,355,793.6L355,793.6z M419.8,788.3c0.2,1.2-0.6,2.3-1.8,2.5c-1.2,0.2-2.3-0.6-2.5-1.8   c-1-5.9-3.8-11.2-7.8-15.3c-4-4.1-9.3-6.9-15.2-7.9c-1.2-0.2-2-1.4-1.8-2.6c0.2-1.2,1.4-2,2.6-1.8c6.8,1.2,12.9,4.5,17.6,9.2   C415.4,775.3,418.7,781.5,419.8,788.3L419.8,788.3z M387.6,754.9c21.3,0,38.6,17.3,38.6,38.6c0,21.3-17.3,38.6-38.6,38.6   c-21.3,0-38.6-17.3-38.6-38.6C349,772.2,366.3,754.9,387.6,754.9z" class="coloreaeff8 svgShape" clip-rule="evenodd"/></g></svg>