<svg xmlns="http://www.w3.org/2000/svg" version="1.1" xmlns:xlink="http://www.w3.org/1999/xlink" xmlns:svgjs="http://svgjs.dev/svgjs" viewBox="0 0 800 800"><defs><linearGradient x1="50%" y1="0%" x2="50%" y2="100%" id="ffflurry-grad" gradientTransform="rotate(270)"><stop stop-color="hsl(33, 93%, 55%)" stop-opacity="1" offset="0%"></stop><stop stop-color="hsl(0, 0%, 63%)" stop-opacity="1" offset="45%"></stop><stop stop-color="hsl(265, 6%, 49%)" stop-opacity="1" offset="100%"></stop></linearGradient></defs><rect width="100%" height="100%" fill="hsl(33, 93%, 55%)"></rect><g fill="url(#ffflurry-grad)"><rect width="506" height="3" x="75" y="469.5" rx="1.5" transform="rotate(45, 328, 471)" opacity="0.74"></rect><rect width="221" height="3" x="261.5" y="128.5" rx="1.5" transform="rotate(45, 372, 130)" opacity="0.41"></rect><rect width="67" height="3" x="609.5" y="666.5" rx="1.5" transform="rotate(45, 643, 668)" opacity="0.16"></rect><rect width="351" height="3" x="390.5" y="432.5" rx="1.5" transform="rotate(45, 566, 434)" opacity="0.92"></rect><rect width="421" height="3" x="-168.5" y="39.5" rx="1.5" transform="rotate(45, 42, 41)" opacity="0.20"></rect><rect width="530" height="3" x="334" y="255.5" rx="1.5" transform="rotate(45, 599, 257)" opacity="0.43"></rect><rect width="223" height="3" x="223.5" y="183.5" rx="1.5" transform="rotate(45, 335, 185)" opacity="0.33"></rect><rect width="422" height="3" x="-174" y="306.5" rx="1.5" transform="rotate(45, 37, 308)" opacity="0.59"></rect><rect width="374" height="3" x="-100" y="228.5" rx="1.5" transform="rotate(45, 87, 230)" opacity="0.75"></rect><rect width="497" height="3" x="109.5" y="40.5" rx="1.5" transform="rotate(45, 358, 42)" opacity="0.35"></rect><rect width="116" height="3" x="707" y="101.5" rx="1.5" transform="rotate(45, 765, 103)" opacity="0.67"></rect><rect width="357" height="3" x="513.5" y="33.5" rx="1.5" transform="rotate(45, 692, 35)" opacity="0.74"></rect><rect width="670" height="3" x="-4" y="357.5" rx="1.5" transform="rotate(45, 331, 359)" opacity="0.50"></rect><rect width="287" height="3" x="98.5" y="262.5" rx="1.5" transform="rotate(45, 242, 264)" opacity="0.45"></rect><rect width="306" height="3" x="268" y="514.5" rx="1.5" transform="rotate(45, 421, 516)" opacity="0.71"></rect><rect width="205" height="3" x="159.5" y="711.5" rx="1.5" transform="rotate(45, 262, 713)" opacity="0.97"></rect><rect width="402" height="3" x="526" y="735.5" rx="1.5" transform="rotate(45, 727, 737)" opacity="0.25"></rect><rect width="262" height="3" x="546" y="455.5" rx="1.5" transform="rotate(45, 677, 457)" opacity="0.91"></rect><rect width="150" height="3" x="655" y="243.5" rx="1.5" transform="rotate(45, 730, 245)" opacity="0.66"></rect><rect width="37" height="3" x="148.5" y="349.5" rx="1.5" transform="rotate(45, 167, 351)" opacity="0.94"></rect><rect width="108" height="3" x="409" y="101.5" rx="1.5" transform="rotate(45, 463, 103)" opacity="0.99"></rect><rect width="518" height="3" x="132" y="586.5" rx="1.5" transform="rotate(45, 391, 588)" opacity="0.91"></rect><rect width="418" height="3" x="-74" y="399.5" rx="1.5" transform="rotate(45, 135, 401)" opacity="0.17"></rect><rect width="304" height="3" x="102" y="150.5" rx="1.5" transform="rotate(45, 254, 152)" opacity="0.84"></rect><rect width="414" height="3" x="-90" y="91.5" rx="1.5" transform="rotate(45, 117, 93)" opacity="0.28"></rect><rect width="537" height="3" x="267.5" y="185.5" rx="1.5" transform="rotate(45, 536, 187)" opacity="0.18"></rect><rect width="367" height="3" x="236.5" y="767.5" rx="1.5" transform="rotate(45, 420, 769)" opacity="0.71"></rect><rect width="280" height="3" x="186" y="640.5" rx="1.5" transform="rotate(45, 326, 642)" opacity="0.48"></rect><rect width="232" height="3" x="642" y="589.5" rx="1.5" transform="rotate(45, 758, 591)" opacity="0.82"></rect><rect width="265" height="3" x="370.5" y="30.5" rx="1.5" transform="rotate(45, 503, 32)" opacity="0.38"></rect><rect width="268" height="3" x="-102" y="740.5" rx="1.5" transform="rotate(45, 32, 742)" opacity="0.50"></rect><rect width="51" height="3" x="78.5" y="736.5" rx="1.5" transform="rotate(45, 104, 738)" opacity="0.20"></rect><rect width="224" height="3" x="-20" y="448.5" rx="1.5" transform="rotate(45, 92, 450)" opacity="0.14"></rect><rect width="403" height="3" x="-139.5" y="635.5" rx="1.5" transform="rotate(45, 62, 637)" opacity="0.53"></rect><rect width="557" height="3" x="393.5" y="358.5" rx="1.5" transform="rotate(45, 672, 360)" opacity="0.95"></rect><rect width="363" height="3" x="59.5" y="320.5" rx="1.5" transform="rotate(45, 241, 322)" opacity="0.33"></rect><rect width="393" height="3" x="244.5" y="215.5" rx="1.5" transform="rotate(45, 441, 217)" opacity="0.94"></rect><rect width="60" height="3" x="421" y="426.5" rx="1.5" transform="rotate(45, 451, 428)" opacity="0.29"></rect><rect width="57" height="3" x="225.5" y="546.5" rx="1.5" transform="rotate(45, 254, 548)" opacity="0.09"></rect><rect width="442" height="3" x="-69" y="29.5" rx="1.5" transform="rotate(45, 152, 31)" opacity="0.83"></rect><rect width="359" height="3" x="-150.5" y="414.5" rx="1.5" transform="rotate(45, 29, 416)" opacity="0.34"></rect><rect width="196" height="3" x="42" y="162.5" rx="1.5" transform="rotate(45, 140, 164)" opacity="0.98"></rect><rect width="66" height="3" x="654" y="155.5" rx="1.5" transform="rotate(45, 687, 157)" opacity="0.12"></rect><rect width="60" height="3" x="57" y="355.5" rx="1.5" transform="rotate(45, 87, 357)" opacity="0.68"></rect><rect width="43" height="3" x="99.5" y="518.5" rx="1.5" transform="rotate(45, 121, 520)" opacity="0.41"></rect><rect width="204" height="3" x="389" y="595.5" rx="1.5" transform="rotate(45, 491, 597)" opacity="0.47"></rect><rect width="285" height="3" x="177.5" y="752.5" rx="1.5" transform="rotate(45, 320, 754)" opacity="0.15"></rect><rect width="325" height="3" x="520.5" y="559.5" rx="1.5" transform="rotate(45, 683, 561)" opacity="0.32"></rect><rect width="359" height="3" x="373.5" y="338.5" rx="1.5" transform="rotate(45, 553, 340)" opacity="0.62"></rect><rect width="219" height="3" x="309.5" y="702.5" rx="1.5" transform="rotate(45, 419, 704)" opacity="0.35"></rect><rect width="138" height="3" x="167" y="772.5" rx="1.5" transform="rotate(45, 236, 774)" opacity="0.52"></rect><rect width="403" height="3" x="-79.5" y="285.5" rx="1.5" transform="rotate(45, 122, 287)" opacity="0.20"></rect><rect width="149" height="3" x="167.5" y="63.5" rx="1.5" transform="rotate(45, 242, 65)" opacity="0.62"></rect><rect width="193" height="3" x="143.5" y="398.5" rx="1.5" transform="rotate(45, 240, 400)" opacity="0.44"></rect><rect width="117" height="3" x="275.5" y="265.5" rx="1.5" transform="rotate(45, 334, 267)" opacity="0.45"></rect><rect width="406" height="3" x="-10" y="462.5" rx="1.5" transform="rotate(45, 193, 464)" opacity="0.22"></rect><rect width="218" height="3" x="42" y="580.5" rx="1.5" transform="rotate(45, 151, 582)" opacity="0.94"></rect><rect width="552" height="3" x="281" y="624.5" rx="1.5" transform="rotate(45, 557, 626)" opacity="0.66"></rect><rect width="224" height="3" x="-75" y="531.5" rx="1.5" transform="rotate(45, 37, 533)" opacity="0.27"></rect><rect width="134" height="3" x="119" y="638.5" rx="1.5" transform="rotate(45, 186, 640)" opacity="0.42"></rect><rect width="154" height="3" x="-34" y="131.5" rx="1.5" transform="rotate(45, 43, 133)" opacity="0.74"></rect><rect width="301" height="3" x="77.5" y="671.5" rx="1.5" transform="rotate(45, 228, 673)" opacity="0.10"></rect><rect width="396" height="3" x="564" y="338.5" rx="1.5" transform="rotate(45, 762, 340)" opacity="0.21"></rect><rect width="201" height="3" x="479.5" y="66.5" rx="1.5" transform="rotate(45, 580, 68)" opacity="0.12"></rect><rect width="719" height="3" x="196.5" y="744.5" rx="1.5" transform="rotate(45, 556, 746)" opacity="0.45"></rect><rect width="529" height="3" x="251.5" y="518.5" rx="1.5" transform="rotate(45, 516, 520)" opacity="0.28"></rect><rect width="76" height="3" x="132" y="749.5" rx="1.5" transform="rotate(45, 170, 751)" opacity="0.78"></rect><rect width="284" height="3" x="130" y="219.5" rx="1.5" transform="rotate(45, 272, 221)" opacity="0.60"></rect><rect width="254" height="3" x="52" y="277.5" rx="1.5" transform="rotate(45, 179, 279)" opacity="0.96"></rect><rect width="340" height="3" x="300" y="659.5" rx="1.5" transform="rotate(45, 470, 661)" opacity="0.75"></rect><rect width="94" height="3" x="-20" y="211.5" rx="1.5" transform="rotate(45, 27, 213)" opacity="0.48"></rect><rect width="442" height="3" x="541" y="452.5" rx="1.5" transform="rotate(45, 762, 454)" opacity="0.54"></rect><rect width="123" height="3" x="537.5" y="573.5" rx="1.5" transform="rotate(45, 599, 575)" opacity="0.79"></rect><rect width="148" height="3" x="116" y="203.5" rx="1.5" transform="rotate(45, 190, 205)" opacity="0.18"></rect><rect width="177" height="3" x="524.5" y="508.5" rx="1.5" transform="rotate(45, 613, 510)" opacity="0.41"></rect><rect width="491" height="3" x="189.5" y="320.5" rx="1.5" transform="rotate(45, 435, 322)" opacity="0.86"></rect><rect width="49" height="3" x="597.5" y="130.5" rx="1.5" transform="rotate(45, 622, 132)" opacity="0.94"></rect></g></svg>